<?xml version="1.0" encoding="utf-8" standalone="no"?>
<!DOCTYPE svg PUBLIC "-//W3C//DTD SVG 1.1//EN"
  "http://www.w3.org/Graphics/SVG/1.1/DTD/svg11.dtd">
<svg xmlns:xlink="http://www.w3.org/1999/xlink" width="720pt" height="259.2pt" viewBox="0 0 720 259.2" xmlns="http://www.w3.org/2000/svg" version="1.1">
 <metadata>
  <rdf:RDF xmlns:dc="http://purl.org/dc/elements/1.1/" xmlns:cc="http://creativecommons.org/ns#" xmlns:rdf="http://www.w3.org/1999/02/22-rdf-syntax-ns#">
   <cc:Work>
    <dc:type rdf:resource="http://purl.org/dc/dcmitype/StillImage"/>
    <dc:date>2026-09-24T02:54:24.701303</dc:date>
    <dc:format>image/svg+xml</dc:format>
    <dc:creator>
     <cc:Agent>
      <dc:title>Matplotlib v3.10.5, https://matplotlib.org/</dc:title>
     </cc:Agent>
    </dc:creator>
   </cc:Work>
  </rdf:RDF>
 </metadata>
 <defs>
  <style type="text/css">*{stroke-linejoin: round; stroke-linecap: butt}</style>
 </defs>
 <g id="figure_1">
  <g id="patch_1">
   <path d="M 0 259.2 
L 720 259.2 
L 720 0 
L 0 0 
z
" style="fill: #ffffff"/>
  </g>
  <g id="axes_1">
   <g id="patch_2">
    <path d="M 41.278365 225.84351 
L 346.175807 225.84351 
L 346.175807 35.07072 
L 41.278365 35.07072 
z
" style="fill: #ffffff"/>
   </g>
   <g id="matplotlib.axis_1">
    <g id="xtick_1">
     <g id="line2d_1">
      <path d="M 54.171557 225.84351 
L 54.171557 35.07072 
" clip-path="url(#p7b9d947126)" style="fill: none; stroke: #b0b0b0; stroke-opacity: 0.2; stroke-width: 0.8; stroke-linecap: square"/>
     </g>
     <g id="line2d_2">
      <defs>
       <path id="m28129146ba" d="M 0 0 
L 0 3.5 
" style="stroke: #000000; stroke-width: 0.8"/>
      </defs>
      <g>
       <use xlink:href="#m28129146ba" x="54.171557" y="225.84351" style="stroke: #000000; stroke-width: 0.8"/>
      </g>
     </g>
     <g id="text_1">
      <!-- 0 -->
      <g transform="translate(50.990307 240.441947) scale(0.1 -0.1)">
       <defs>
        <path id="DejaVuSans-30" d="M 2034 4250 
Q 1547 4250 1301 3770 
Q 1056 3291 1056 2328 
Q 1056 1369 1301 889 
Q 1547 409 2034 409 
Q 2525 409 2770 889 
Q 3016 1369 3016 2328 
Q 3016 3291 2770 3770 
Q 2525 4250 2034 4250 
z
M 2034 4750 
Q 2819 4750 3233 4129 
Q 3647 3509 3647 2328 
Q 3647 1150 3233 529 
Q 2819 -91 2034 -91 
Q 1250 -91 836 529 
Q 422 1150 422 2328 
Q 422 3509 836 4129 
Q 1250 4750 2034 4750 
z
" transform="scale(0.015625)"/>
       </defs>
       <use xlink:href="#DejaVuSans-30"/>
      </g>
     </g>
    </g>
    <g id="xtick_2">
     <g id="line2d_3">
      <path d="M 102.460668 225.84351 
L 102.460668 35.07072 
" clip-path="url(#p7b9d947126)" style="fill: none; stroke: #b0b0b0; stroke-opacity: 0.2; stroke-width: 0.8; stroke-linecap: square"/>
     </g>
     <g id="line2d_4">
      <g>
       <use xlink:href="#m28129146ba" x="102.460668" y="225.84351" style="stroke: #000000; stroke-width: 0.8"/>
      </g>
     </g>
     <g id="text_2">
      <!-- 50 -->
      <g transform="translate(96.098168 240.441947) scale(0.1 -0.1)">
       <defs>
        <path id="DejaVuSans-35" d="M 691 4666 
L 3169 4666 
L 3169 4134 
L 1269 4134 
L 1269 2991 
Q 1406 3038 1543 3061 
Q 1681 3084 1819 3084 
Q 2600 3084 3056 2656 
Q 3513 2228 3513 1497 
Q 3513 744 3044 326 
Q 2575 -91 1722 -91 
Q 1428 -91 1123 -41 
Q 819 9 494 109 
L 494 744 
Q 775 591 1075 516 
Q 1375 441 1709 441 
Q 2250 441 2565 725 
Q 2881 1009 2881 1497 
Q 2881 1984 2565 2268 
Q 2250 2553 1709 2553 
Q 1456 2553 1204 2497 
Q 953 2441 691 2322 
L 691 4666 
z
" transform="scale(0.015625)"/>
       </defs>
       <use xlink:href="#DejaVuSans-35"/>
       <use xlink:href="#DejaVuSans-30" transform="translate(63.623047 0)"/>
      </g>
     </g>
    </g>
    <g id="xtick_3">
     <g id="line2d_5">
      <path d="M 150.749778 225.84351 
L 150.749778 35.07072 
" clip-path="url(#p7b9d947126)" style="fill: none; stroke: #b0b0b0; stroke-opacity: 0.2; stroke-width: 0.8; stroke-linecap: square"/>
     </g>
     <g id="line2d_6">
      <g>
       <use xlink:href="#m28129146ba" x="150.749778" y="225.84351" style="stroke: #000000; stroke-width: 0.8"/>
      </g>
     </g>
     <g id="text_3">
      <!-- 100 -->
      <g transform="translate(141.206028 240.441947) scale(0.1 -0.1)">
       <defs>
        <path id="DejaVuSans-31" d="M 794 531 
L 1825 531 
L 1825 4091 
L 703 3866 
L 703 4441 
L 1819 4666 
L 2450 4666 
L 2450 531 
L 3481 531 
L 3481 0 
L 794 0 
L 794 531 
z
" transform="scale(0.015625)"/>
       </defs>
       <use xlink:href="#DejaVuSans-31"/>
       <use xlink:href="#DejaVuSans-30" transform="translate(63.623047 0)"/>
       <use xlink:href="#DejaVuSans-30" transform="translate(127.246094 0)"/>
      </g>
     </g>
    </g>
    <g id="xtick_4">
     <g id="line2d_7">
      <path d="M 199.038888 225.84351 
L 199.038888 35.07072 
" clip-path="url(#p7b9d947126)" style="fill: none; stroke: #b0b0b0; stroke-opacity: 0.2; stroke-width: 0.8; stroke-linecap: square"/>
     </g>
     <g id="line2d_8">
      <g>
       <use xlink:href="#m28129146ba" x="199.038888" y="225.84351" style="stroke: #000000; stroke-width: 0.8"/>
      </g>
     </g>
     <g id="text_4">
      <!-- 150 -->
      <g transform="translate(189.495138 240.441947) scale(0.1 -0.1)">
       <use xlink:href="#DejaVuSans-31"/>
       <use xlink:href="#DejaVuSans-35" transform="translate(63.623047 0)"/>
       <use xlink:href="#DejaVuSans-30" transform="translate(127.246094 0)"/>
      </g>
     </g>
    </g>
    <g id="xtick_5">
     <g id="line2d_9">
      <path d="M 247.327998 225.84351 
L 247.327998 35.07072 
" clip-path="url(#p7b9d947126)" style="fill: none; stroke: #b0b0b0; stroke-opacity: 0.2; stroke-width: 0.8; stroke-linecap: square"/>
     </g>
     <g id="line2d_10">
      <g>
       <use xlink:href="#m28129146ba" x="247.327998" y="225.84351" style="stroke: #000000; stroke-width: 0.8"/>
      </g>
     </g>
     <g id="text_5">
      <!-- 200 -->
      <g transform="translate(237.784248 240.441947) scale(0.1 -0.1)">
       <defs>
        <path id="DejaVuSans-32" d="M 1228 531 
L 3431 531 
L 3431 0 
L 469 0 
L 469 531 
Q 828 903 1448 1529 
Q 2069 2156 2228 2338 
Q 2531 2678 2651 2914 
Q 2772 3150 2772 3378 
Q 2772 3750 2511 3984 
Q 2250 4219 1831 4219 
Q 1534 4219 1204 4116 
Q 875 4013 500 3803 
L 500 4441 
Q 881 4594 1212 4672 
Q 1544 4750 1819 4750 
Q 2544 4750 2975 4387 
Q 3406 4025 3406 3419 
Q 3406 3131 3298 2873 
Q 3191 2616 2906 2266 
Q 2828 2175 2409 1742 
Q 1991 1309 1228 531 
z
" transform="scale(0.015625)"/>
       </defs>
       <use xlink:href="#DejaVuSans-32"/>
       <use xlink:href="#DejaVuSans-30" transform="translate(63.623047 0)"/>
       <use xlink:href="#DejaVuSans-30" transform="translate(127.246094 0)"/>
      </g>
     </g>
    </g>
    <g id="xtick_6">
     <g id="line2d_11">
      <path d="M 295.617109 225.84351 
L 295.617109 35.07072 
" clip-path="url(#p7b9d947126)" style="fill: none; stroke: #b0b0b0; stroke-opacity: 0.2; stroke-width: 0.8; stroke-linecap: square"/>
     </g>
     <g id="line2d_12">
      <g>
       <use xlink:href="#m28129146ba" x="295.617109" y="225.84351" style="stroke: #000000; stroke-width: 0.8"/>
      </g>
     </g>
     <g id="text_6">
      <!-- 250 -->
      <g transform="translate(286.073359 240.441947) scale(0.1 -0.1)">
       <use xlink:href="#DejaVuSans-32"/>
       <use xlink:href="#DejaVuSans-35" transform="translate(63.623047 0)"/>
       <use xlink:href="#DejaVuSans-30" transform="translate(127.246094 0)"/>
      </g>
     </g>
    </g>
    <g id="xtick_7">
     <g id="line2d_13">
      <path d="M 343.906219 225.84351 
L 343.906219 35.07072 
" clip-path="url(#p7b9d947126)" style="fill: none; stroke: #b0b0b0; stroke-opacity: 0.2; stroke-width: 0.8; stroke-linecap: square"/>
     </g>
     <g id="line2d_14">
      <g>
       <use xlink:href="#m28129146ba" x="343.906219" y="225.84351" style="stroke: #000000; stroke-width: 0.8"/>
      </g>
     </g>
     <g id="text_7">
      <!-- 300 -->
      <g transform="translate(334.362469 240.441947) scale(0.1 -0.1)">
       <defs>
        <path id="DejaVuSans-33" d="M 2597 2516 
Q 3050 2419 3304 2112 
Q 3559 1806 3559 1356 
Q 3559 666 3084 287 
Q 2609 -91 1734 -91 
Q 1441 -91 1130 -33 
Q 819 25 488 141 
L 488 750 
Q 750 597 1062 519 
Q 1375 441 1716 441 
Q 2309 441 2620 675 
Q 2931 909 2931 1356 
Q 2931 1769 2642 2001 
Q 2353 2234 1838 2234 
L 1294 2234 
L 1294 2753 
L 1863 2753 
Q 2328 2753 2575 2939 
Q 2822 3125 2822 3475 
Q 2822 3834 2567 4026 
Q 2313 4219 1838 4219 
Q 1578 4219 1281 4162 
Q 984 4106 628 3988 
L 628 4550 
Q 988 4650 1302 4700 
Q 1616 4750 1894 4750 
Q 2613 4750 3031 4423 
Q 3450 4097 3450 3541 
Q 3450 3153 3228 2886 
Q 3006 2619 2597 2516 
z
" transform="scale(0.015625)"/>
       </defs>
       <use xlink:href="#DejaVuSans-33"/>
       <use xlink:href="#DejaVuSans-30" transform="translate(63.623047 0)"/>
       <use xlink:href="#DejaVuSans-30" transform="translate(127.246094 0)"/>
      </g>
     </g>
    </g>
    <g id="text_8">
     <!-- Latent optimizer update -->
     <g transform="translate(133.31693 254.120072) scale(0.1 -0.1)">
      <defs>
       <path id="DejaVuSans-4c" d="M 628 4666 
L 1259 4666 
L 1259 531 
L 3531 531 
L 3531 0 
L 628 0 
L 628 4666 
z
" transform="scale(0.015625)"/>
       <path id="DejaVuSans-61" d="M 2194 1759 
Q 1497 1759 1228 1600 
Q 959 1441 959 1056 
Q 959 750 1161 570 
Q 1363 391 1709 391 
Q 2188 391 2477 730 
Q 2766 1069 2766 1631 
L 2766 1759 
L 2194 1759 
z
M 3341 1997 
L 3341 0 
L 2766 0 
L 2766 531 
Q 2569 213 2275 61 
Q 1981 -91 1556 -91 
Q 1019 -91 701 211 
Q 384 513 384 1019 
Q 384 1609 779 1909 
Q 1175 2209 1959 2209 
L 2766 2209 
L 2766 2266 
Q 2766 2663 2505 2880 
Q 2244 3097 1772 3097 
Q 1472 3097 1187 3025 
Q 903 2953 641 2809 
L 641 3341 
Q 956 3463 1253 3523 
Q 1550 3584 1831 3584 
Q 2591 3584 2966 3190 
Q 3341 2797 3341 1997 
z
" transform="scale(0.015625)"/>
       <path id="DejaVuSans-74" d="M 1172 4494 
L 1172 3500 
L 2356 3500 
L 2356 3053 
L 1172 3053 
L 1172 1153 
Q 1172 725 1289 603 
Q 1406 481 1766 481 
L 2356 481 
L 2356 0 
L 1766 0 
Q 1100 0 847 248 
Q 594 497 594 1153 
L 594 3053 
L 172 3053 
L 172 3500 
L 594 3500 
L 594 4494 
L 1172 4494 
z
" transform="scale(0.015625)"/>
       <path id="DejaVuSans-65" d="M 3597 1894 
L 3597 1613 
L 953 1613 
Q 991 1019 1311 708 
Q 1631 397 2203 397 
Q 2534 397 2845 478 
Q 3156 559 3463 722 
L 3463 178 
Q 3153 47 2828 -22 
Q 2503 -91 2169 -91 
Q 1331 -91 842 396 
Q 353 884 353 1716 
Q 353 2575 817 3079 
Q 1281 3584 2069 3584 
Q 2775 3584 3186 3129 
Q 3597 2675 3597 1894 
z
M 3022 2063 
Q 3016 2534 2758 2815 
Q 2500 3097 2075 3097 
Q 1594 3097 1305 2825 
Q 1016 2553 972 2059 
L 3022 2063 
z
" transform="scale(0.015625)"/>
       <path id="DejaVuSans-6e" d="M 3513 2113 
L 3513 0 
L 2938 0 
L 2938 2094 
Q 2938 2591 2744 2837 
Q 2550 3084 2163 3084 
Q 1697 3084 1428 2787 
Q 1159 2491 1159 1978 
L 1159 0 
L 581 0 
L 581 3500 
L 1159 3500 
L 1159 2956 
Q 1366 3272 1645 3428 
Q 1925 3584 2291 3584 
Q 2894 3584 3203 3211 
Q 3513 2838 3513 2113 
z
" transform="scale(0.015625)"/>
       <path id="DejaVuSans-20" transform="scale(0.015625)"/>
       <path id="DejaVuSans-6f" d="M 1959 3097 
Q 1497 3097 1228 2736 
Q 959 2375 959 1747 
Q 959 1119 1226 758 
Q 1494 397 1959 397 
Q 2419 397 2687 759 
Q 2956 1122 2956 1747 
Q 2956 2369 2687 2733 
Q 2419 3097 1959 3097 
z
M 1959 3584 
Q 2709 3584 3137 3096 
Q 3566 2609 3566 1747 
Q 3566 888 3137 398 
Q 2709 -91 1959 -91 
Q 1206 -91 779 398 
Q 353 888 353 1747 
Q 353 2609 779 3096 
Q 1206 3584 1959 3584 
z
" transform="scale(0.015625)"/>
       <path id="DejaVuSans-70" d="M 1159 525 
L 1159 -1331 
L 581 -1331 
L 581 3500 
L 1159 3500 
L 1159 2969 
Q 1341 3281 1617 3432 
Q 1894 3584 2278 3584 
Q 2916 3584 3314 3078 
Q 3713 2572 3713 1747 
Q 3713 922 3314 415 
Q 2916 -91 2278 -91 
Q 1894 -91 1617 61 
Q 1341 213 1159 525 
z
M 3116 1747 
Q 3116 2381 2855 2742 
Q 2594 3103 2138 3103 
Q 1681 3103 1420 2742 
Q 1159 2381 1159 1747 
Q 1159 1113 1420 752 
Q 1681 391 2138 391 
Q 2594 391 2855 752 
Q 3116 1113 3116 1747 
z
" transform="scale(0.015625)"/>
       <path id="DejaVuSans-69" d="M 603 3500 
L 1178 3500 
L 1178 0 
L 603 0 
L 603 3500 
z
M 603 4863 
L 1178 4863 
L 1178 4134 
L 603 4134 
L 603 4863 
z
" transform="scale(0.015625)"/>
       <path id="DejaVuSans-6d" d="M 3328 2828 
Q 3544 3216 3844 3400 
Q 4144 3584 4550 3584 
Q 5097 3584 5394 3201 
Q 5691 2819 5691 2113 
L 5691 0 
L 5113 0 
L 5113 2094 
Q 5113 2597 4934 2840 
Q 4756 3084 4391 3084 
Q 3944 3084 3684 2787 
Q 3425 2491 3425 1978 
L 3425 0 
L 2847 0 
L 2847 2094 
Q 2847 2600 2669 2842 
Q 2491 3084 2119 3084 
Q 1678 3084 1418 2786 
Q 1159 2488 1159 1978 
L 1159 0 
L 581 0 
L 581 3500 
L 1159 3500 
L 1159 2956 
Q 1356 3278 1631 3431 
Q 1906 3584 2284 3584 
Q 2666 3584 2933 3390 
Q 3200 3197 3328 2828 
z
" transform="scale(0.015625)"/>
       <path id="DejaVuSans-7a" d="M 353 3500 
L 3084 3500 
L 3084 2975 
L 922 459 
L 3084 459 
L 3084 0 
L 275 0 
L 275 525 
L 2438 3041 
L 353 3041 
L 353 3500 
z
" transform="scale(0.015625)"/>
       <path id="DejaVuSans-72" d="M 2631 2963 
Q 2534 3019 2420 3045 
Q 2306 3072 2169 3072 
Q 1681 3072 1420 2755 
Q 1159 2438 1159 1844 
L 1159 0 
L 581 0 
L 581 3500 
L 1159 3500 
L 1159 2956 
Q 1341 3275 1631 3429 
Q 1922 3584 2338 3584 
Q 2397 3584 2469 3576 
Q 2541 3569 2628 3553 
L 2631 2963 
z
" transform="scale(0.015625)"/>
       <path id="DejaVuSans-75" d="M 544 1381 
L 544 3500 
L 1119 3500 
L 1119 1403 
Q 1119 906 1312 657 
Q 1506 409 1894 409 
Q 2359 409 2629 706 
Q 2900 1003 2900 1516 
L 2900 3500 
L 3475 3500 
L 3475 0 
L 2900 0 
L 2900 538 
Q 2691 219 2414 64 
Q 2138 -91 1772 -91 
Q 1169 -91 856 284 
Q 544 659 544 1381 
z
M 1991 3584 
L 1991 3584 
z
" transform="scale(0.015625)"/>
       <path id="DejaVuSans-64" d="M 2906 2969 
L 2906 4863 
L 3481 4863 
L 3481 0 
L 2906 0 
L 2906 525 
Q 2725 213 2448 61 
Q 2172 -91 1784 -91 
Q 1150 -91 751 415 
Q 353 922 353 1747 
Q 353 2572 751 3078 
Q 1150 3584 1784 3584 
Q 2172 3584 2448 3432 
Q 2725 3281 2906 2969 
z
M 947 1747 
Q 947 1113 1208 752 
Q 1469 391 1925 391 
Q 2381 391 2643 752 
Q 2906 1113 2906 1747 
Q 2906 2381 2643 2742 
Q 2381 3103 1925 3103 
Q 1469 3103 1208 2742 
Q 947 2381 947 1747 
z
" transform="scale(0.015625)"/>
      </defs>
      <use xlink:href="#DejaVuSans-4c"/>
      <use xlink:href="#DejaVuSans-61" transform="translate(55.712891 0)"/>
      <use xlink:href="#DejaVuSans-74" transform="translate(116.992188 0)"/>
      <use xlink:href="#DejaVuSans-65" transform="translate(156.201172 0)"/>
      <use xlink:href="#DejaVuSans-6e" transform="translate(217.724609 0)"/>
      <use xlink:href="#DejaVuSans-74" transform="translate(281.103516 0)"/>
      <use xlink:href="#DejaVuSans-20" transform="translate(320.3125 0)"/>
      <use xlink:href="#DejaVuSans-6f" transform="translate(352.099609 0)"/>
      <use xlink:href="#DejaVuSans-70" transform="translate(413.28125 0)"/>
      <use xlink:href="#DejaVuSans-74" transform="translate(476.757812 0)"/>
      <use xlink:href="#DejaVuSans-69" transform="translate(515.966797 0)"/>
      <use xlink:href="#DejaVuSans-6d" transform="translate(543.75 0)"/>
      <use xlink:href="#DejaVuSans-69" transform="translate(641.162109 0)"/>
      <use xlink:href="#DejaVuSans-7a" transform="translate(668.945312 0)"/>
      <use xlink:href="#DejaVuSans-65" transform="translate(721.435547 0)"/>
      <use xlink:href="#DejaVuSans-72" transform="translate(782.958984 0)"/>
      <use xlink:href="#DejaVuSans-20" transform="translate(824.072266 0)"/>
      <use xlink:href="#DejaVuSans-75" transform="translate(855.859375 0)"/>
      <use xlink:href="#DejaVuSans-70" transform="translate(919.238281 0)"/>
      <use xlink:href="#DejaVuSans-64" transform="translate(982.714844 0)"/>
      <use xlink:href="#DejaVuSans-61" transform="translate(1046.191406 0)"/>
      <use xlink:href="#DejaVuSans-74" transform="translate(1107.470703 0)"/>
      <use xlink:href="#DejaVuSans-65" transform="translate(1146.679688 0)"/>
     </g>
    </g>
   </g>
   <g id="matplotlib.axis_2">
    <g id="ytick_1">
     <g id="line2d_15">
      <path d="M 41.278365 83.069208 
L 346.175807 83.069208 
" clip-path="url(#p7b9d947126)" style="fill: none; stroke: #b0b0b0; stroke-opacity: 0.2; stroke-width: 0.8; stroke-linecap: square"/>
     </g>
     <g id="line2d_16">
      <defs>
       <path id="m1a87b04179" d="M 0 0 
L -3.5 0 
" style="stroke: #000000; stroke-width: 0.8"/>
      </defs>
      <g>
       <use xlink:href="#m1a87b04179" x="41.278365" y="83.069208" style="stroke: #000000; stroke-width: 0.8"/>
      </g>
     </g>
     <g id="text_9">
      <!-- $\mathdefault{10^{0}}$ -->
      <g transform="translate(16.678365 86.868427) scale(0.1 -0.1)">
       <use xlink:href="#DejaVuSans-31" transform="translate(0 0.765625)"/>
       <use xlink:href="#DejaVuSans-30" transform="translate(63.623047 0.765625)"/>
       <use xlink:href="#DejaVuSans-30" transform="translate(128.203125 39.046875) scale(0.7)"/>
      </g>
     </g>
    </g>
    <g id="ytick_2">
     <g id="line2d_17">
      <defs>
       <path id="m5f509a4089" d="M 0 0 
L -2 0 
" style="stroke: #000000; stroke-width: 0.6"/>
      </defs>
      <g>
       <use xlink:href="#m5f509a4089" x="41.278365" y="198.861802" style="stroke: #000000; stroke-width: 0.6"/>
      </g>
     </g>
    </g>
    <g id="ytick_3">
     <g id="line2d_18">
      <g>
       <use xlink:href="#m5f509a4089" x="41.278365" y="169.690216" style="stroke: #000000; stroke-width: 0.6"/>
      </g>
     </g>
    </g>
    <g id="ytick_4">
     <g id="line2d_19">
      <g>
       <use xlink:href="#m5f509a4089" x="41.278365" y="148.992646" style="stroke: #000000; stroke-width: 0.6"/>
      </g>
     </g>
    </g>
    <g id="ytick_5">
     <g id="line2d_20">
      <g>
       <use xlink:href="#m5f509a4089" x="41.278365" y="132.938364" style="stroke: #000000; stroke-width: 0.6"/>
      </g>
     </g>
    </g>
    <g id="ytick_6">
     <g id="line2d_21">
      <g>
       <use xlink:href="#m5f509a4089" x="41.278365" y="119.82106" style="stroke: #000000; stroke-width: 0.6"/>
      </g>
     </g>
    </g>
    <g id="ytick_7">
     <g id="line2d_22">
      <g>
       <use xlink:href="#m5f509a4089" x="41.278365" y="108.730538" style="stroke: #000000; stroke-width: 0.6"/>
      </g>
     </g>
    </g>
    <g id="ytick_8">
     <g id="line2d_23">
      <g>
       <use xlink:href="#m5f509a4089" x="41.278365" y="99.123491" style="stroke: #000000; stroke-width: 0.6"/>
      </g>
     </g>
    </g>
    <g id="ytick_9">
     <g id="line2d_24">
      <g>
       <use xlink:href="#m5f509a4089" x="41.278365" y="90.649474" style="stroke: #000000; stroke-width: 0.6"/>
      </g>
     </g>
    </g>
    <g id="text_10">
     <!-- Mean target-token CE (including EOS) -->
     <g transform="translate(10.598678 225.015709) rotate(-90) scale(0.1 -0.1)">
      <defs>
       <path id="DejaVuSans-4d" d="M 628 4666 
L 1569 4666 
L 2759 1491 
L 3956 4666 
L 4897 4666 
L 4897 0 
L 4281 0 
L 4281 4097 
L 3078 897 
L 2444 897 
L 1241 4097 
L 1241 0 
L 628 0 
L 628 4666 
z
" transform="scale(0.015625)"/>
       <path id="DejaVuSans-67" d="M 2906 1791 
Q 2906 2416 2648 2759 
Q 2391 3103 1925 3103 
Q 1463 3103 1205 2759 
Q 947 2416 947 1791 
Q 947 1169 1205 825 
Q 1463 481 1925 481 
Q 2391 481 2648 825 
Q 2906 1169 2906 1791 
z
M 3481 434 
Q 3481 -459 3084 -895 
Q 2688 -1331 1869 -1331 
Q 1566 -1331 1297 -1286 
Q 1028 -1241 775 -1147 
L 775 -588 
Q 1028 -725 1275 -790 
Q 1522 -856 1778 -856 
Q 2344 -856 2625 -561 
Q 2906 -266 2906 331 
L 2906 616 
Q 2728 306 2450 153 
Q 2172 0 1784 0 
Q 1141 0 747 490 
Q 353 981 353 1791 
Q 353 2603 747 3093 
Q 1141 3584 1784 3584 
Q 2172 3584 2450 3431 
Q 2728 3278 2906 2969 
L 2906 3500 
L 3481 3500 
L 3481 434 
z
" transform="scale(0.015625)"/>
       <path id="DejaVuSans-2d" d="M 313 2009 
L 1997 2009 
L 1997 1497 
L 313 1497 
L 313 2009 
z
" transform="scale(0.015625)"/>
       <path id="DejaVuSans-6b" d="M 581 4863 
L 1159 4863 
L 1159 1991 
L 2875 3500 
L 3609 3500 
L 1753 1863 
L 3688 0 
L 2938 0 
L 1159 1709 
L 1159 0 
L 581 0 
L 581 4863 
z
" transform="scale(0.015625)"/>
       <path id="DejaVuSans-43" d="M 4122 4306 
L 4122 3641 
Q 3803 3938 3442 4084 
Q 3081 4231 2675 4231 
Q 1875 4231 1450 3742 
Q 1025 3253 1025 2328 
Q 1025 1406 1450 917 
Q 1875 428 2675 428 
Q 3081 428 3442 575 
Q 3803 722 4122 1019 
L 4122 359 
Q 3791 134 3420 21 
Q 3050 -91 2638 -91 
Q 1578 -91 968 557 
Q 359 1206 359 2328 
Q 359 3453 968 4101 
Q 1578 4750 2638 4750 
Q 3056 4750 3426 4639 
Q 3797 4528 4122 4306 
z
" transform="scale(0.015625)"/>
       <path id="DejaVuSans-45" d="M 628 4666 
L 3578 4666 
L 3578 4134 
L 1259 4134 
L 1259 2753 
L 3481 2753 
L 3481 2222 
L 1259 2222 
L 1259 531 
L 3634 531 
L 3634 0 
L 628 0 
L 628 4666 
z
" transform="scale(0.015625)"/>
       <path id="DejaVuSans-28" d="M 1984 4856 
Q 1566 4138 1362 3434 
Q 1159 2731 1159 2009 
Q 1159 1288 1364 580 
Q 1569 -128 1984 -844 
L 1484 -844 
Q 1016 -109 783 600 
Q 550 1309 550 2009 
Q 550 2706 781 3412 
Q 1013 4119 1484 4856 
L 1984 4856 
z
" transform="scale(0.015625)"/>
       <path id="DejaVuSans-63" d="M 3122 3366 
L 3122 2828 
Q 2878 2963 2633 3030 
Q 2388 3097 2138 3097 
Q 1578 3097 1268 2742 
Q 959 2388 959 1747 
Q 959 1106 1268 751 
Q 1578 397 2138 397 
Q 2388 397 2633 464 
Q 2878 531 3122 666 
L 3122 134 
Q 2881 22 2623 -34 
Q 2366 -91 2075 -91 
Q 1284 -91 818 406 
Q 353 903 353 1747 
Q 353 2603 823 3093 
Q 1294 3584 2113 3584 
Q 2378 3584 2631 3529 
Q 2884 3475 3122 3366 
z
" transform="scale(0.015625)"/>
       <path id="DejaVuSans-6c" d="M 603 4863 
L 1178 4863 
L 1178 0 
L 603 0 
L 603 4863 
z
" transform="scale(0.015625)"/>
       <path id="DejaVuSans-4f" d="M 2522 4238 
Q 1834 4238 1429 3725 
Q 1025 3213 1025 2328 
Q 1025 1447 1429 934 
Q 1834 422 2522 422 
Q 3209 422 3611 934 
Q 4013 1447 4013 2328 
Q 4013 3213 3611 3725 
Q 3209 4238 2522 4238 
z
M 2522 4750 
Q 3503 4750 4090 4092 
Q 4678 3434 4678 2328 
Q 4678 1225 4090 567 
Q 3503 -91 2522 -91 
Q 1538 -91 948 565 
Q 359 1222 359 2328 
Q 359 3434 948 4092 
Q 1538 4750 2522 4750 
z
" transform="scale(0.015625)"/>
       <path id="DejaVuSans-53" d="M 3425 4513 
L 3425 3897 
Q 3066 4069 2747 4153 
Q 2428 4238 2131 4238 
Q 1616 4238 1336 4038 
Q 1056 3838 1056 3469 
Q 1056 3159 1242 3001 
Q 1428 2844 1947 2747 
L 2328 2669 
Q 3034 2534 3370 2195 
Q 3706 1856 3706 1288 
Q 3706 609 3251 259 
Q 2797 -91 1919 -91 
Q 1588 -91 1214 -16 
Q 841 59 441 206 
L 441 856 
Q 825 641 1194 531 
Q 1563 422 1919 422 
Q 2459 422 2753 634 
Q 3047 847 3047 1241 
Q 3047 1584 2836 1778 
Q 2625 1972 2144 2069 
L 1759 2144 
Q 1053 2284 737 2584 
Q 422 2884 422 3419 
Q 422 4038 858 4394 
Q 1294 4750 2059 4750 
Q 2388 4750 2728 4690 
Q 3069 4631 3425 4513 
z
" transform="scale(0.015625)"/>
       <path id="DejaVuSans-29" d="M 513 4856 
L 1013 4856 
Q 1481 4119 1714 3412 
Q 1947 2706 1947 2009 
Q 1947 1309 1714 600 
Q 1481 -109 1013 -844 
L 513 -844 
Q 928 -128 1133 580 
Q 1338 1288 1338 2009 
Q 1338 2731 1133 3434 
Q 928 4138 513 4856 
z
" transform="scale(0.015625)"/>
      </defs>
      <use xlink:href="#DejaVuSans-4d"/>
      <use xlink:href="#DejaVuSans-65" transform="translate(86.279297 0)"/>
      <use xlink:href="#DejaVuSans-61" transform="translate(147.802734 0)"/>
      <use xlink:href="#DejaVuSans-6e" transform="translate(209.082031 0)"/>
      <use xlink:href="#DejaVuSans-20" transform="translate(272.460938 0)"/>
      <use xlink:href="#DejaVuSans-74" transform="translate(304.248047 0)"/>
      <use xlink:href="#DejaVuSans-61" transform="translate(343.457031 0)"/>
      <use xlink:href="#DejaVuSans-72" transform="translate(404.736328 0)"/>
      <use xlink:href="#DejaVuSans-67" transform="translate(444.099609 0)"/>
      <use xlink:href="#DejaVuSans-65" transform="translate(507.576172 0)"/>
      <use xlink:href="#DejaVuSans-74" transform="translate(569.099609 0)"/>
      <use xlink:href="#DejaVuSans-2d" transform="translate(608.308594 0)"/>
      <use xlink:href="#DejaVuSans-74" transform="translate(644.392578 0)"/>
      <use xlink:href="#DejaVuSans-6f" transform="translate(683.601562 0)"/>
      <use xlink:href="#DejaVuSans-6b" transform="translate(744.783203 0)"/>
      <use xlink:href="#DejaVuSans-65" transform="translate(799.068359 0)"/>
      <use xlink:href="#DejaVuSans-6e" transform="translate(860.591797 0)"/>
      <use xlink:href="#DejaVuSans-20" transform="translate(923.970703 0)"/>
      <use xlink:href="#DejaVuSans-43" transform="translate(955.757812 0)"/>
      <use xlink:href="#DejaVuSans-45" transform="translate(1025.582031 0)"/>
      <use xlink:href="#DejaVuSans-20" transform="translate(1088.765625 0)"/>
      <use xlink:href="#DejaVuSans-28" transform="translate(1120.552734 0)"/>
      <use xlink:href="#DejaVuSans-69" transform="translate(1159.566406 0)"/>
      <use xlink:href="#DejaVuSans-6e" transform="translate(1187.349609 0)"/>
      <use xlink:href="#DejaVuSans-63" transform="translate(1250.728516 0)"/>
      <use xlink:href="#DejaVuSans-6c" transform="translate(1305.708984 0)"/>
      <use xlink:href="#DejaVuSans-75" transform="translate(1333.492188 0)"/>
      <use xlink:href="#DejaVuSans-64" transform="translate(1396.871094 0)"/>
      <use xlink:href="#DejaVuSans-69" transform="translate(1460.347656 0)"/>
      <use xlink:href="#DejaVuSans-6e" transform="translate(1488.130859 0)"/>
      <use xlink:href="#DejaVuSans-67" transform="translate(1551.509766 0)"/>
      <use xlink:href="#DejaVuSans-20" transform="translate(1614.986328 0)"/>
      <use xlink:href="#DejaVuSans-45" transform="translate(1646.773438 0)"/>
      <use xlink:href="#DejaVuSans-4f" transform="translate(1709.957031 0)"/>
      <use xlink:href="#DejaVuSans-53" transform="translate(1788.667969 0)"/>
      <use xlink:href="#DejaVuSans-29" transform="translate(1852.144531 0)"/>
     </g>
    </g>
   </g>
   <g id="line2d_25">
    <path d="M 55.13734 43.74221 
L 58.034686 44.957983 
L 60.932033 49.327015 
L 63.829379 53.275422 
L 66.726726 55.594979 
L 69.624073 57.912423 
L 72.521419 61.133146 
L 75.418766 64.066037 
L 78.316113 68.67273 
L 81.213459 71.910243 
L 84.110806 75.425108 
L 87.008152 76.717798 
L 89.905499 79.018474 
L 92.802846 82.187459 
L 95.700192 69.165804 
L 98.597539 75.935552 
L 101.494885 81.124595 
L 104.392232 83.790348 
L 107.289579 84.800275 
L 110.186925 84.397985 
L 113.084272 85.56495 
L 115.981619 88.917291 
L 118.878965 90.680792 
L 121.776312 92.47291 
L 124.673658 94.147208 
L 127.571005 96.184059 
L 130.468352 97.733066 
L 133.365698 99.439384 
L 136.263045 101.352389 
L 139.160392 102.627251 
L 142.057738 103.111288 
L 144.955085 103.770123 
L 147.852431 104.092845 
L 150.749778 105.902935 
L 153.647125 105.631586 
L 156.544471 101.604885 
L 159.441818 105.320966 
L 162.339164 104.34214 
L 165.236511 106.156448 
L 168.133858 109.463426 
L 171.031204 110.840396 
L 173.928551 111.868654 
L 176.825898 113.956574 
L 179.723244 114.269531 
L 182.620591 117.15565 
L 185.517937 114.658768 
L 188.415284 116.929415 
L 191.312631 118.485233 
L 194.209977 109.673722 
L 197.107324 108.333875 
L 200.00467 111.69382 
L 202.902017 115.801634 
L 205.799364 118.512739 
L 208.69671 123.100955 
L 211.594057 117.113051 
L 214.491404 118.219855 
L 217.38875 123.519962 
L 220.286097 126.401878 
L 223.183443 130.151437 
L 226.08079 132.866811 
L 228.978137 134.516559 
L 231.875483 134.3138 
L 234.77283 134.825617 
L 237.670176 134.437232 
L 240.567523 133.844203 
L 243.46487 126.494603 
L 246.362216 128.925175 
L 249.259563 125.696044 
L 252.15691 125.530318 
L 255.054256 132.726405 
L 257.951603 136.579386 
L 260.848949 141.805363 
L 263.746296 142.493441 
L 266.643643 151.579228 
L 269.540989 157.520074 
L 272.438336 163.462597 
L 275.335682 165.387214 
L 278.233029 164.622622 
L 281.130376 163.580892 
L 284.027722 172.522739 
L 286.925069 177.744826 
L 289.822416 177.661666 
L 292.719762 165.776366 
L 295.617109 156.835984 
L 298.514455 163.078531 
L 301.411802 161.29418 
L 304.309149 165.537662 
L 307.206495 172.056951 
L 310.103842 176.939121 
L 313.001188 183.767145 
L 315.898535 187.823411 
L 318.795882 192.768184 
L 321.693228 200.957425 
L 324.590575 207.86096 
L 327.487922 212.286563 
L 330.385268 203.940082 
" clip-path="url(#p7b9d947126)" style="fill: none; stroke: #1f77b4; stroke-opacity: 0.85; stroke-width: 1.1; stroke-linecap: square"/>
   </g>
   <g id="line2d_26">
    <path d="M 56.103122 45.130844 
L 59.000468 47.526684 
L 61.897815 51.973124 
L 64.795162 54.886369 
L 67.692508 57.841594 
L 70.589855 59.848563 
L 73.487202 63.067472 
L 76.384548 66.067654 
L 79.281895 69.480648 
L 82.179241 74.377409 
L 85.076588 76.71099 
L 87.973935 78.258699 
L 90.871281 80.268372 
L 93.768628 83.597707 
L 96.665974 75.939692 
L 99.563321 78.694362 
L 102.460668 83.345868 
L 105.358014 84.18729 
L 108.255361 85.915708 
L 111.152708 84.660603 
L 114.050054 87.287866 
L 116.947401 90.045569 
L 119.844747 91.888942 
L 122.742094 93.339093 
L 125.639441 95.079225 
L 128.536787 97.042343 
L 131.434134 98.52222 
L 134.33148 100.420053 
L 137.228827 102.213676 
L 140.126174 103.721719 
L 143.02352 103.281619 
L 145.920867 103.471246 
L 148.818214 105.014851 
L 151.71556 105.798845 
L 154.612907 102.319478 
L 157.510253 103.082137 
L 160.4076 102.812241 
L 163.304947 105.017673 
L 166.202293 108.127636 
L 169.09964 110.899082 
L 171.996986 111.338314 
L 174.894333 112.170391 
L 177.79168 114.522744 
L 180.689026 115.493826 
L 183.586373 117.788178 
L 186.48372 114.512459 
L 189.381066 117.639629 
L 192.278413 110.600544 
L 195.175759 104.724241 
L 198.073106 110.161961 
L 200.970453 113.26375 
L 203.867799 117.064252 
L 206.765146 119.898396 
L 209.662492 121.322765 
L 212.559839 118.251491 
L 215.457186 120.588499 
L 218.354532 123.909197 
L 221.251879 127.362937 
L 224.149226 131.769296 
L 227.046572 133.529261 
L 229.943919 136.71908 
L 232.841265 134.895004 
L 235.738612 134.11087 
L 238.635959 138.474695 
L 241.533305 127.225574 
L 244.430652 131.235377 
L 247.327998 123.285993 
L 250.225345 122.062074 
L 253.122692 129.955386 
L 256.020038 135.199465 
L 258.917385 140.154443 
L 261.814732 135.659898 
L 264.712078 148.710935 
L 267.609425 155.117552 
L 270.506771 160.576723 
L 273.404118 166.677234 
L 276.301465 165.675447 
L 279.198811 163.820137 
L 282.096158 167.352467 
L 284.993504 174.435825 
L 287.890851 180.089701 
L 290.788198 172.76401 
L 293.685544 162.453412 
L 296.582891 151.426833 
L 299.480238 163.673352 
L 302.377584 161.044769 
L 305.274931 168.029356 
L 308.172277 176.75385 
L 311.069624 180.490262 
L 313.966971 182.207725 
L 316.864317 190.250916 
L 319.761664 196.470495 
L 322.65901 204.182581 
L 325.556357 210.673801 
L 328.453704 217.17202 
L 331.35105 180.456901 
" clip-path="url(#p7b9d947126)" style="fill: none; stroke: #ff7f0e; stroke-opacity: 0.85; stroke-width: 1.1; stroke-linecap: square"/>
   </g>
   <g id="line2d_27">
    <path d="M 57.068904 44.238676 
L 59.966251 48.758921 
L 62.863597 53.830373 
L 65.760944 55.370025 
L 68.658291 59.595762 
L 71.555637 61.718804 
L 74.452984 63.61068 
L 77.35033 67.653735 
L 80.247677 72.266874 
L 83.145024 75.723259 
L 86.04237 77.106306 
L 88.939717 80.022522 
L 91.837063 82.339483 
L 94.73441 84.480522 
L 97.631757 77.186836 
L 100.529103 80.933165 
L 103.42645 83.417239 
L 106.323797 84.597979 
L 109.221143 83.950945 
L 112.11849 86.051382 
L 115.015836 88.898943 
L 117.913183 91.083603 
L 120.81053 92.10954 
L 123.707876 93.785965 
L 126.605223 96.310928 
L 129.502569 97.726189 
L 132.399916 99.674191 
L 135.297263 101.388259 
L 138.194609 103.362323 
L 141.091956 102.950494 
L 143.989303 104.057989 
L 146.886649 104.556585 
L 149.783996 105.87199 
L 152.681342 106.764227 
L 155.578689 100.823334 
L 158.476036 105.133411 
L 161.373382 104.56576 
L 164.270729 107.035432 
L 167.168075 109.621782 
L 170.065422 111.832481 
L 172.962769 111.651974 
L 175.860115 114.628965 
L 178.757462 115.053126 
L 181.654809 116.862047 
L 184.552155 116.689888 
L 187.449502 116.55517 
L 190.346848 118.346763 
L 193.244195 114.839633 
L 196.141542 107.448406 
L 199.038888 111.706953 
L 201.936235 115.360199 
L 204.833581 119.195993 
L 207.730928 122.245919 
L 210.628275 119.645708 
L 213.525621 118.933887 
L 216.422968 122.51699 
L 219.320315 126.159033 
L 222.217661 128.545143 
L 225.115008 134.216544 
L 228.012354 135.893603 
L 230.909701 135.263035 
L 233.807048 134.8662 
L 236.704394 133.518578 
L 239.601741 138.241302 
L 242.499087 132.371646 
L 245.396434 131.122632 
L 248.293781 127.606852 
L 251.191127 123.857357 
L 254.088474 132.258008 
L 256.985821 139.855942 
L 259.883167 143.103715 
L 262.780514 144.96438 
L 265.67786 151.198984 
L 268.575207 157.437648 
L 271.472554 162.623888 
L 274.3699 166.860951 
L 277.267247 169.743344 
L 280.164593 164.953646 
L 283.06194 168.226444 
L 285.959287 176.268997 
L 288.856633 180.836214 
L 291.75398 169.002711 
L 294.651327 157.936 
L 297.548673 153.734123 
L 300.44602 163.66386 
L 303.343366 165.430617 
L 306.240713 172.726478 
L 309.13806 176.958151 
L 312.035406 181.021265 
L 314.932753 187.300701 
L 317.830099 190.474617 
L 320.727446 198.09994 
L 323.624793 206.597494 
L 326.522139 212.450615 
L 329.419486 210.327822 
L 332.316833 179.882665 
" clip-path="url(#p7b9d947126)" style="fill: none; stroke: #2ca02c; stroke-opacity: 0.85; stroke-width: 1.1; stroke-linecap: square"/>
   </g>
   <g id="patch_3">
    <path d="M 41.278365 225.84351 
L 41.278365 35.07072 
" style="fill: none; stroke: #000000; stroke-width: 0.8; stroke-linejoin: miter; stroke-linecap: square"/>
   </g>
   <g id="patch_4">
    <path d="M 346.175807 225.84351 
L 346.175807 35.07072 
" style="fill: none; stroke: #000000; stroke-width: 0.8; stroke-linejoin: miter; stroke-linecap: square"/>
   </g>
   <g id="patch_5">
    <path d="M 41.278365 225.84351 
L 346.175807 225.84351 
" style="fill: none; stroke: #000000; stroke-width: 0.8; stroke-linejoin: miter; stroke-linecap: square"/>
   </g>
   <g id="patch_6">
    <path d="M 41.278365 35.07072 
L 346.175807 35.07072 
" style="fill: none; stroke: #000000; stroke-width: 0.8; stroke-linejoin: miter; stroke-linecap: square"/>
   </g>
   <g id="text_11">
    <!-- A: official free-answer CE -->
    <g transform="translate(118.470211 29.07072) scale(0.12 -0.12)">
     <defs>
      <path id="DejaVuSans-41" d="M 2188 4044 
L 1331 1722 
L 3047 1722 
L 2188 4044 
z
M 1831 4666 
L 2547 4666 
L 4325 0 
L 3669 0 
L 3244 1197 
L 1141 1197 
L 716 0 
L 50 0 
L 1831 4666 
z
" transform="scale(0.015625)"/>
      <path id="DejaVuSans-3a" d="M 750 794 
L 1409 794 
L 1409 0 
L 750 0 
L 750 794 
z
M 750 3309 
L 1409 3309 
L 1409 2516 
L 750 2516 
L 750 3309 
z
" transform="scale(0.015625)"/>
      <path id="DejaVuSans-66" d="M 2375 4863 
L 2375 4384 
L 1825 4384 
Q 1516 4384 1395 4259 
Q 1275 4134 1275 3809 
L 1275 3500 
L 2222 3500 
L 2222 3053 
L 1275 3053 
L 1275 0 
L 697 0 
L 697 3053 
L 147 3053 
L 147 3500 
L 697 3500 
L 697 3744 
Q 697 4328 969 4595 
Q 1241 4863 1831 4863 
L 2375 4863 
z
" transform="scale(0.015625)"/>
      <path id="DejaVuSans-73" d="M 2834 3397 
L 2834 2853 
Q 2591 2978 2328 3040 
Q 2066 3103 1784 3103 
Q 1356 3103 1142 2972 
Q 928 2841 928 2578 
Q 928 2378 1081 2264 
Q 1234 2150 1697 2047 
L 1894 2003 
Q 2506 1872 2764 1633 
Q 3022 1394 3022 966 
Q 3022 478 2636 193 
Q 2250 -91 1575 -91 
Q 1294 -91 989 -36 
Q 684 19 347 128 
L 347 722 
Q 666 556 975 473 
Q 1284 391 1588 391 
Q 1994 391 2212 530 
Q 2431 669 2431 922 
Q 2431 1156 2273 1281 
Q 2116 1406 1581 1522 
L 1381 1569 
Q 847 1681 609 1914 
Q 372 2147 372 2553 
Q 372 3047 722 3315 
Q 1072 3584 1716 3584 
Q 2034 3584 2315 3537 
Q 2597 3491 2834 3397 
z
" transform="scale(0.015625)"/>
      <path id="DejaVuSans-77" d="M 269 3500 
L 844 3500 
L 1563 769 
L 2278 3500 
L 2956 3500 
L 3675 769 
L 4391 3500 
L 4966 3500 
L 4050 0 
L 3372 0 
L 2619 2869 
L 1863 0 
L 1184 0 
L 269 3500 
z
" transform="scale(0.015625)"/>
     </defs>
     <use xlink:href="#DejaVuSans-41"/>
     <use xlink:href="#DejaVuSans-3a" transform="translate(66.658203 0)"/>
     <use xlink:href="#DejaVuSans-20" transform="translate(100.349609 0)"/>
     <use xlink:href="#DejaVuSans-6f" transform="translate(132.136719 0)"/>
     <use xlink:href="#DejaVuSans-66" transform="translate(193.318359 0)"/>
     <use xlink:href="#DejaVuSans-66" transform="translate(228.523438 0)"/>
     <use xlink:href="#DejaVuSans-69" transform="translate(263.728516 0)"/>
     <use xlink:href="#DejaVuSans-63" transform="translate(291.511719 0)"/>
     <use xlink:href="#DejaVuSans-69" transform="translate(346.492188 0)"/>
     <use xlink:href="#DejaVuSans-61" transform="translate(374.275391 0)"/>
     <use xlink:href="#DejaVuSans-6c" transform="translate(435.554688 0)"/>
     <use xlink:href="#DejaVuSans-20" transform="translate(463.337891 0)"/>
     <use xlink:href="#DejaVuSans-66" transform="translate(495.125 0)"/>
     <use xlink:href="#DejaVuSans-72" transform="translate(530.330078 0)"/>
     <use xlink:href="#DejaVuSans-65" transform="translate(569.193359 0)"/>
     <use xlink:href="#DejaVuSans-65" transform="translate(630.716797 0)"/>
     <use xlink:href="#DejaVuSans-2d" transform="translate(692.240234 0)"/>
     <use xlink:href="#DejaVuSans-61" transform="translate(728.324219 0)"/>
     <use xlink:href="#DejaVuSans-6e" transform="translate(789.603516 0)"/>
     <use xlink:href="#DejaVuSans-73" transform="translate(852.982422 0)"/>
     <use xlink:href="#DejaVuSans-77" transform="translate(905.082031 0)"/>
     <use xlink:href="#DejaVuSans-65" transform="translate(986.869141 0)"/>
     <use xlink:href="#DejaVuSans-72" transform="translate(1048.392578 0)"/>
     <use xlink:href="#DejaVuSans-20" transform="translate(1089.505859 0)"/>
     <use xlink:href="#DejaVuSans-43" transform="translate(1121.292969 0)"/>
     <use xlink:href="#DejaVuSans-45" transform="translate(1191.117188 0)"/>
    </g>
   </g>
   <g id="legend_1">
    <g id="line2d_28">
     <path d="M 175.76487 48.169157 
L 185.76487 48.169157 
L 195.76487 48.169157 
" style="fill: none; stroke: #1f77b4; stroke-opacity: 0.85; stroke-width: 1.1; stroke-linecap: square"/>
    </g>
    <g id="text_12">
     <!-- T1 -->
     <g transform="translate(203.76487 51.669157) scale(0.1 -0.1)">
      <defs>
       <path id="DejaVuSans-54" d="M -19 4666 
L 3928 4666 
L 3928 4134 
L 2272 4134 
L 2272 0 
L 1638 0 
L 1638 4134 
L -19 4134 
L -19 4666 
z
" transform="scale(0.015625)"/>
      </defs>
      <use xlink:href="#DejaVuSans-54"/>
      <use xlink:href="#DejaVuSans-31" transform="translate(61.083984 0)"/>
     </g>
    </g>
    <g id="line2d_29">
     <path d="M 236.235182 48.169157 
L 246.235182 48.169157 
L 256.235182 48.169157 
" style="fill: none; stroke: #ff7f0e; stroke-opacity: 0.85; stroke-width: 1.1; stroke-linecap: square"/>
    </g>
    <g id="text_13">
     <!-- T2 -->
     <g transform="translate(264.235182 51.669157) scale(0.1 -0.1)">
      <use xlink:href="#DejaVuSans-54"/>
      <use xlink:href="#DejaVuSans-32" transform="translate(61.083984 0)"/>
     </g>
    </g>
    <g id="line2d_30">
     <path d="M 296.705495 48.169157 
L 306.705495 48.169157 
L 316.705495 48.169157 
" style="fill: none; stroke: #2ca02c; stroke-opacity: 0.85; stroke-width: 1.1; stroke-linecap: square"/>
    </g>
    <g id="text_14">
     <!-- T3 -->
     <g transform="translate(324.705495 51.669157) scale(0.1 -0.1)">
      <use xlink:href="#DejaVuSans-54"/>
      <use xlink:href="#DejaVuSans-33" transform="translate(61.083984 0)"/>
     </g>
    </g>
   </g>
  </g>
  <g id="axes_2">
   <g id="patch_7">
    <path d="M 404.828125 225.84351 
L 709.725567 225.84351 
L 709.725567 35.07072 
L 404.828125 35.07072 
z
" style="fill: #ffffff"/>
   </g>
   <g id="matplotlib.axis_3">
    <g id="xtick_8">
     <g id="line2d_31">
      <path d="M 417.721317 225.84351 
L 417.721317 35.07072 
" clip-path="url(#p4c83e9cc50)" style="fill: none; stroke: #b0b0b0; stroke-opacity: 0.2; stroke-width: 0.8; stroke-linecap: square"/>
     </g>
     <g id="line2d_32">
      <g>
       <use xlink:href="#m28129146ba" x="417.721317" y="225.84351" style="stroke: #000000; stroke-width: 0.8"/>
      </g>
     </g>
     <g id="text_15">
      <!-- 0 -->
      <g transform="translate(414.540067 240.441947) scale(0.1 -0.1)">
       <use xlink:href="#DejaVuSans-30"/>
      </g>
     </g>
    </g>
    <g id="xtick_9">
     <g id="line2d_33">
      <path d="M 466.010428 225.84351 
L 466.010428 35.07072 
" clip-path="url(#p4c83e9cc50)" style="fill: none; stroke: #b0b0b0; stroke-opacity: 0.2; stroke-width: 0.8; stroke-linecap: square"/>
     </g>
     <g id="line2d_34">
      <g>
       <use xlink:href="#m28129146ba" x="466.010428" y="225.84351" style="stroke: #000000; stroke-width: 0.8"/>
      </g>
     </g>
     <g id="text_16">
      <!-- 50 -->
      <g transform="translate(459.647928 240.441947) scale(0.1 -0.1)">
       <use xlink:href="#DejaVuSans-35"/>
       <use xlink:href="#DejaVuSans-30" transform="translate(63.623047 0)"/>
      </g>
     </g>
    </g>
    <g id="xtick_10">
     <g id="line2d_35">
      <path d="M 514.299538 225.84351 
L 514.299538 35.07072 
" clip-path="url(#p4c83e9cc50)" style="fill: none; stroke: #b0b0b0; stroke-opacity: 0.2; stroke-width: 0.8; stroke-linecap: square"/>
     </g>
     <g id="line2d_36">
      <g>
       <use xlink:href="#m28129146ba" x="514.299538" y="225.84351" style="stroke: #000000; stroke-width: 0.8"/>
      </g>
     </g>
     <g id="text_17">
      <!-- 100 -->
      <g transform="translate(504.755788 240.441947) scale(0.1 -0.1)">
       <use xlink:href="#DejaVuSans-31"/>
       <use xlink:href="#DejaVuSans-30" transform="translate(63.623047 0)"/>
       <use xlink:href="#DejaVuSans-30" transform="translate(127.246094 0)"/>
      </g>
     </g>
    </g>
    <g id="xtick_11">
     <g id="line2d_37">
      <path d="M 562.588648 225.84351 
L 562.588648 35.07072 
" clip-path="url(#p4c83e9cc50)" style="fill: none; stroke: #b0b0b0; stroke-opacity: 0.2; stroke-width: 0.8; stroke-linecap: square"/>
     </g>
     <g id="line2d_38">
      <g>
       <use xlink:href="#m28129146ba" x="562.588648" y="225.84351" style="stroke: #000000; stroke-width: 0.8"/>
      </g>
     </g>
     <g id="text_18">
      <!-- 150 -->
      <g transform="translate(553.044898 240.441947) scale(0.1 -0.1)">
       <use xlink:href="#DejaVuSans-31"/>
       <use xlink:href="#DejaVuSans-35" transform="translate(63.623047 0)"/>
       <use xlink:href="#DejaVuSans-30" transform="translate(127.246094 0)"/>
      </g>
     </g>
    </g>
    <g id="xtick_12">
     <g id="line2d_39">
      <path d="M 610.877758 225.84351 
L 610.877758 35.07072 
" clip-path="url(#p4c83e9cc50)" style="fill: none; stroke: #b0b0b0; stroke-opacity: 0.2; stroke-width: 0.8; stroke-linecap: square"/>
     </g>
     <g id="line2d_40">
      <g>
       <use xlink:href="#m28129146ba" x="610.877758" y="225.84351" style="stroke: #000000; stroke-width: 0.8"/>
      </g>
     </g>
     <g id="text_19">
      <!-- 200 -->
      <g transform="translate(601.334008 240.441947) scale(0.1 -0.1)">
       <use xlink:href="#DejaVuSans-32"/>
       <use xlink:href="#DejaVuSans-30" transform="translate(63.623047 0)"/>
       <use xlink:href="#DejaVuSans-30" transform="translate(127.246094 0)"/>
      </g>
     </g>
    </g>
    <g id="xtick_13">
     <g id="line2d_41">
      <path d="M 659.166869 225.84351 
L 659.166869 35.07072 
" clip-path="url(#p4c83e9cc50)" style="fill: none; stroke: #b0b0b0; stroke-opacity: 0.2; stroke-width: 0.8; stroke-linecap: square"/>
     </g>
     <g id="line2d_42">
      <g>
       <use xlink:href="#m28129146ba" x="659.166869" y="225.84351" style="stroke: #000000; stroke-width: 0.8"/>
      </g>
     </g>
     <g id="text_20">
      <!-- 250 -->
      <g transform="translate(649.623119 240.441947) scale(0.1 -0.1)">
       <use xlink:href="#DejaVuSans-32"/>
       <use xlink:href="#DejaVuSans-35" transform="translate(63.623047 0)"/>
       <use xlink:href="#DejaVuSans-30" transform="translate(127.246094 0)"/>
      </g>
     </g>
    </g>
    <g id="xtick_14">
     <g id="line2d_43">
      <path d="M 707.455979 225.84351 
L 707.455979 35.07072 
" clip-path="url(#p4c83e9cc50)" style="fill: none; stroke: #b0b0b0; stroke-opacity: 0.2; stroke-width: 0.8; stroke-linecap: square"/>
     </g>
     <g id="line2d_44">
      <g>
       <use xlink:href="#m28129146ba" x="707.455979" y="225.84351" style="stroke: #000000; stroke-width: 0.8"/>
      </g>
     </g>
     <g id="text_21">
      <!-- 300 -->
      <g transform="translate(697.912229 240.441947) scale(0.1 -0.1)">
       <use xlink:href="#DejaVuSans-33"/>
       <use xlink:href="#DejaVuSans-30" transform="translate(63.623047 0)"/>
       <use xlink:href="#DejaVuSans-30" transform="translate(127.246094 0)"/>
      </g>
     </g>
    </g>
    <g id="text_22">
     <!-- Latent optimizer update -->
     <g transform="translate(496.86669 254.120072) scale(0.1 -0.1)">
      <use xlink:href="#DejaVuSans-4c"/>
      <use xlink:href="#DejaVuSans-61" transform="translate(55.712891 0)"/>
      <use xlink:href="#DejaVuSans-74" transform="translate(116.992188 0)"/>
      <use xlink:href="#DejaVuSans-65" transform="translate(156.201172 0)"/>
      <use xlink:href="#DejaVuSans-6e" transform="translate(217.724609 0)"/>
      <use xlink:href="#DejaVuSans-74" transform="translate(281.103516 0)"/>
      <use xlink:href="#DejaVuSans-20" transform="translate(320.3125 0)"/>
      <use xlink:href="#DejaVuSans-6f" transform="translate(352.099609 0)"/>
      <use xlink:href="#DejaVuSans-70" transform="translate(413.28125 0)"/>
      <use xlink:href="#DejaVuSans-74" transform="translate(476.757812 0)"/>
      <use xlink:href="#DejaVuSans-69" transform="translate(515.966797 0)"/>
      <use xlink:href="#DejaVuSans-6d" transform="translate(543.75 0)"/>
      <use xlink:href="#DejaVuSans-69" transform="translate(641.162109 0)"/>
      <use xlink:href="#DejaVuSans-7a" transform="translate(668.945312 0)"/>
      <use xlink:href="#DejaVuSans-65" transform="translate(721.435547 0)"/>
      <use xlink:href="#DejaVuSans-72" transform="translate(782.958984 0)"/>
      <use xlink:href="#DejaVuSans-20" transform="translate(824.072266 0)"/>
      <use xlink:href="#DejaVuSans-75" transform="translate(855.859375 0)"/>
      <use xlink:href="#DejaVuSans-70" transform="translate(919.238281 0)"/>
      <use xlink:href="#DejaVuSans-64" transform="translate(982.714844 0)"/>
      <use xlink:href="#DejaVuSans-61" transform="translate(1046.191406 0)"/>
      <use xlink:href="#DejaVuSans-74" transform="translate(1107.470703 0)"/>
      <use xlink:href="#DejaVuSans-65" transform="translate(1146.679688 0)"/>
     </g>
    </g>
   </g>
   <g id="matplotlib.axis_4">
    <g id="ytick_10">
     <g id="line2d_45">
      <path d="M 404.828125 223.303506 
L 709.725567 223.303506 
" clip-path="url(#p4c83e9cc50)" style="fill: none; stroke: #b0b0b0; stroke-opacity: 0.2; stroke-width: 0.8; stroke-linecap: square"/>
     </g>
     <g id="line2d_46">
      <g>
       <use xlink:href="#m1a87b04179" x="404.828125" y="223.303506" style="stroke: #000000; stroke-width: 0.8"/>
      </g>
     </g>
     <g id="text_23">
      <!-- $\mathdefault{10^{-6}}$ -->
      <g transform="translate(374.328125 227.102725) scale(0.1 -0.1)">
       <defs>
        <path id="DejaVuSans-2212" d="M 678 2272 
L 4684 2272 
L 4684 1741 
L 678 1741 
L 678 2272 
z
" transform="scale(0.015625)"/>
        <path id="DejaVuSans-36" d="M 2113 2584 
Q 1688 2584 1439 2293 
Q 1191 2003 1191 1497 
Q 1191 994 1439 701 
Q 1688 409 2113 409 
Q 2538 409 2786 701 
Q 3034 994 3034 1497 
Q 3034 2003 2786 2293 
Q 2538 2584 2113 2584 
z
M 3366 4563 
L 3366 3988 
Q 3128 4100 2886 4159 
Q 2644 4219 2406 4219 
Q 1781 4219 1451 3797 
Q 1122 3375 1075 2522 
Q 1259 2794 1537 2939 
Q 1816 3084 2150 3084 
Q 2853 3084 3261 2657 
Q 3669 2231 3669 1497 
Q 3669 778 3244 343 
Q 2819 -91 2113 -91 
Q 1303 -91 875 529 
Q 447 1150 447 2328 
Q 447 3434 972 4092 
Q 1497 4750 2381 4750 
Q 2619 4750 2861 4703 
Q 3103 4656 3366 4563 
z
" transform="scale(0.015625)"/>
       </defs>
       <use xlink:href="#DejaVuSans-31" transform="translate(0 0.765625)"/>
       <use xlink:href="#DejaVuSans-30" transform="translate(63.623047 0.765625)"/>
       <use xlink:href="#DejaVuSans-2212" transform="translate(128.203125 39.046875) scale(0.7)"/>
       <use xlink:href="#DejaVuSans-36" transform="translate(186.855469 39.046875) scale(0.7)"/>
      </g>
     </g>
    </g>
    <g id="ytick_11">
     <g id="line2d_47">
      <path d="M 404.828125 194.582357 
L 709.725567 194.582357 
" clip-path="url(#p4c83e9cc50)" style="fill: none; stroke: #b0b0b0; stroke-opacity: 0.2; stroke-width: 0.8; stroke-linecap: square"/>
     </g>
     <g id="line2d_48">
      <g>
       <use xlink:href="#m1a87b04179" x="404.828125" y="194.582357" style="stroke: #000000; stroke-width: 0.8"/>
      </g>
     </g>
     <g id="text_24">
      <!-- $\mathdefault{10^{-5}}$ -->
      <g transform="translate(374.328125 198.381576) scale(0.1 -0.1)">
       <use xlink:href="#DejaVuSans-31" transform="translate(0 0.684375)"/>
       <use xlink:href="#DejaVuSans-30" transform="translate(63.623047 0.684375)"/>
       <use xlink:href="#DejaVuSans-2212" transform="translate(128.203125 38.965625) scale(0.7)"/>
       <use xlink:href="#DejaVuSans-35" transform="translate(186.855469 38.965625) scale(0.7)"/>
      </g>
     </g>
    </g>
    <g id="ytick_12">
     <g id="line2d_49">
      <path d="M 404.828125 165.861209 
L 709.725567 165.861209 
" clip-path="url(#p4c83e9cc50)" style="fill: none; stroke: #b0b0b0; stroke-opacity: 0.2; stroke-width: 0.8; stroke-linecap: square"/>
     </g>
     <g id="line2d_50">
      <g>
       <use xlink:href="#m1a87b04179" x="404.828125" y="165.861209" style="stroke: #000000; stroke-width: 0.8"/>
      </g>
     </g>
     <g id="text_25">
      <!-- $\mathdefault{10^{-4}}$ -->
      <g transform="translate(374.328125 169.660427) scale(0.1 -0.1)">
       <defs>
        <path id="DejaVuSans-34" d="M 2419 4116 
L 825 1625 
L 2419 1625 
L 2419 4116 
z
M 2253 4666 
L 3047 4666 
L 3047 1625 
L 3713 1625 
L 3713 1100 
L 3047 1100 
L 3047 0 
L 2419 0 
L 2419 1100 
L 313 1100 
L 313 1709 
L 2253 4666 
z
" transform="scale(0.015625)"/>
       </defs>
       <use xlink:href="#DejaVuSans-31" transform="translate(0 0.684375)"/>
       <use xlink:href="#DejaVuSans-30" transform="translate(63.623047 0.684375)"/>
       <use xlink:href="#DejaVuSans-2212" transform="translate(128.203125 38.965625) scale(0.7)"/>
       <use xlink:href="#DejaVuSans-34" transform="translate(186.855469 38.965625) scale(0.7)"/>
      </g>
     </g>
    </g>
    <g id="ytick_13">
     <g id="line2d_51">
      <path d="M 404.828125 137.14006 
L 709.725567 137.14006 
" clip-path="url(#p4c83e9cc50)" style="fill: none; stroke: #b0b0b0; stroke-opacity: 0.2; stroke-width: 0.8; stroke-linecap: square"/>
     </g>
     <g id="line2d_52">
      <g>
       <use xlink:href="#m1a87b04179" x="404.828125" y="137.14006" style="stroke: #000000; stroke-width: 0.8"/>
      </g>
     </g>
     <g id="text_26">
      <!-- $\mathdefault{10^{-3}}$ -->
      <g transform="translate(374.328125 140.939279) scale(0.1 -0.1)">
       <use xlink:href="#DejaVuSans-31" transform="translate(0 0.765625)"/>
       <use xlink:href="#DejaVuSans-30" transform="translate(63.623047 0.765625)"/>
       <use xlink:href="#DejaVuSans-2212" transform="translate(128.203125 39.046875) scale(0.7)"/>
       <use xlink:href="#DejaVuSans-33" transform="translate(186.855469 39.046875) scale(0.7)"/>
      </g>
     </g>
    </g>
    <g id="ytick_14">
     <g id="line2d_53">
      <path d="M 404.828125 108.418912 
L 709.725567 108.418912 
" clip-path="url(#p4c83e9cc50)" style="fill: none; stroke: #b0b0b0; stroke-opacity: 0.2; stroke-width: 0.8; stroke-linecap: square"/>
     </g>
     <g id="line2d_54">
      <g>
       <use xlink:href="#m1a87b04179" x="404.828125" y="108.418912" style="stroke: #000000; stroke-width: 0.8"/>
      </g>
     </g>
     <g id="text_27">
      <!-- $\mathdefault{10^{-2}}$ -->
      <g transform="translate(374.328125 112.21813) scale(0.1 -0.1)">
       <use xlink:href="#DejaVuSans-31" transform="translate(0 0.765625)"/>
       <use xlink:href="#DejaVuSans-30" transform="translate(63.623047 0.765625)"/>
       <use xlink:href="#DejaVuSans-2212" transform="translate(128.203125 39.046875) scale(0.7)"/>
       <use xlink:href="#DejaVuSans-32" transform="translate(186.855469 39.046875) scale(0.7)"/>
      </g>
     </g>
    </g>
    <g id="ytick_15">
     <g id="line2d_55">
      <path d="M 404.828125 79.697763 
L 709.725567 79.697763 
" clip-path="url(#p4c83e9cc50)" style="fill: none; stroke: #b0b0b0; stroke-opacity: 0.2; stroke-width: 0.8; stroke-linecap: square"/>
     </g>
     <g id="line2d_56">
      <g>
       <use xlink:href="#m1a87b04179" x="404.828125" y="79.697763" style="stroke: #000000; stroke-width: 0.8"/>
      </g>
     </g>
     <g id="text_28">
      <!-- $\mathdefault{10^{-1}}$ -->
      <g transform="translate(374.328125 83.496982) scale(0.1 -0.1)">
       <use xlink:href="#DejaVuSans-31" transform="translate(0 0.684375)"/>
       <use xlink:href="#DejaVuSans-30" transform="translate(63.623047 0.684375)"/>
       <use xlink:href="#DejaVuSans-2212" transform="translate(128.203125 38.965625) scale(0.7)"/>
       <use xlink:href="#DejaVuSans-31" transform="translate(186.855469 38.965625) scale(0.7)"/>
      </g>
     </g>
    </g>
    <g id="ytick_16">
     <g id="line2d_57">
      <path d="M 404.828125 50.976614 
L 709.725567 50.976614 
" clip-path="url(#p4c83e9cc50)" style="fill: none; stroke: #b0b0b0; stroke-opacity: 0.2; stroke-width: 0.8; stroke-linecap: square"/>
     </g>
     <g id="line2d_58">
      <g>
       <use xlink:href="#m1a87b04179" x="404.828125" y="50.976614" style="stroke: #000000; stroke-width: 0.8"/>
      </g>
     </g>
     <g id="text_29">
      <!-- $\mathdefault{10^{0}}$ -->
      <g transform="translate(380.228125 54.775833) scale(0.1 -0.1)">
       <use xlink:href="#DejaVuSans-31" transform="translate(0 0.765625)"/>
       <use xlink:href="#DejaVuSans-30" transform="translate(63.623047 0.765625)"/>
       <use xlink:href="#DejaVuSans-30" transform="translate(128.203125 39.046875) scale(0.7)"/>
      </g>
     </g>
    </g>
    <g id="ytick_17">
     <g id="line2d_59">
      <g>
       <use xlink:href="#m5f509a4089" x="404.828125" y="224.617714" style="stroke: #000000; stroke-width: 0.6"/>
      </g>
     </g>
    </g>
    <g id="ytick_18">
     <g id="line2d_60">
      <g>
       <use xlink:href="#m5f509a4089" x="404.828125" y="214.657579" style="stroke: #000000; stroke-width: 0.6"/>
      </g>
     </g>
    </g>
    <g id="ytick_19">
     <g id="line2d_61">
      <g>
       <use xlink:href="#m5f509a4089" x="404.828125" y="209.600035" style="stroke: #000000; stroke-width: 0.6"/>
      </g>
     </g>
    </g>
    <g id="ytick_20">
     <g id="line2d_62">
      <g>
       <use xlink:href="#m5f509a4089" x="404.828125" y="206.011651" style="stroke: #000000; stroke-width: 0.6"/>
      </g>
     </g>
    </g>
    <g id="ytick_21">
     <g id="line2d_63">
      <g>
       <use xlink:href="#m5f509a4089" x="404.828125" y="203.228285" style="stroke: #000000; stroke-width: 0.6"/>
      </g>
     </g>
    </g>
    <g id="ytick_22">
     <g id="line2d_64">
      <g>
       <use xlink:href="#m5f509a4089" x="404.828125" y="200.954108" style="stroke: #000000; stroke-width: 0.6"/>
      </g>
     </g>
    </g>
    <g id="ytick_23">
     <g id="line2d_65">
      <g>
       <use xlink:href="#m5f509a4089" x="404.828125" y="199.03132" style="stroke: #000000; stroke-width: 0.6"/>
      </g>
     </g>
    </g>
    <g id="ytick_24">
     <g id="line2d_66">
      <g>
       <use xlink:href="#m5f509a4089" x="404.828125" y="197.365724" style="stroke: #000000; stroke-width: 0.6"/>
      </g>
     </g>
    </g>
    <g id="ytick_25">
     <g id="line2d_67">
      <g>
       <use xlink:href="#m5f509a4089" x="404.828125" y="195.896565" style="stroke: #000000; stroke-width: 0.6"/>
      </g>
     </g>
    </g>
    <g id="ytick_26">
     <g id="line2d_68">
      <g>
       <use xlink:href="#m5f509a4089" x="404.828125" y="185.93643" style="stroke: #000000; stroke-width: 0.6"/>
      </g>
     </g>
    </g>
    <g id="ytick_27">
     <g id="line2d_69">
      <g>
       <use xlink:href="#m5f509a4089" x="404.828125" y="180.878887" style="stroke: #000000; stroke-width: 0.6"/>
      </g>
     </g>
    </g>
    <g id="ytick_28">
     <g id="line2d_70">
      <g>
       <use xlink:href="#m5f509a4089" x="404.828125" y="177.290503" style="stroke: #000000; stroke-width: 0.6"/>
      </g>
     </g>
    </g>
    <g id="ytick_29">
     <g id="line2d_71">
      <g>
       <use xlink:href="#m5f509a4089" x="404.828125" y="174.507136" style="stroke: #000000; stroke-width: 0.6"/>
      </g>
     </g>
    </g>
    <g id="ytick_30">
     <g id="line2d_72">
      <g>
       <use xlink:href="#m5f509a4089" x="404.828125" y="172.23296" style="stroke: #000000; stroke-width: 0.6"/>
      </g>
     </g>
    </g>
    <g id="ytick_31">
     <g id="line2d_73">
      <g>
       <use xlink:href="#m5f509a4089" x="404.828125" y="170.310171" style="stroke: #000000; stroke-width: 0.6"/>
      </g>
     </g>
    </g>
    <g id="ytick_32">
     <g id="line2d_74">
      <g>
       <use xlink:href="#m5f509a4089" x="404.828125" y="168.644576" style="stroke: #000000; stroke-width: 0.6"/>
      </g>
     </g>
    </g>
    <g id="ytick_33">
     <g id="line2d_75">
      <g>
       <use xlink:href="#m5f509a4089" x="404.828125" y="167.175416" style="stroke: #000000; stroke-width: 0.6"/>
      </g>
     </g>
    </g>
    <g id="ytick_34">
     <g id="line2d_76">
      <g>
       <use xlink:href="#m5f509a4089" x="404.828125" y="157.215281" style="stroke: #000000; stroke-width: 0.6"/>
      </g>
     </g>
    </g>
    <g id="ytick_35">
     <g id="line2d_77">
      <g>
       <use xlink:href="#m5f509a4089" x="404.828125" y="152.157738" style="stroke: #000000; stroke-width: 0.6"/>
      </g>
     </g>
    </g>
    <g id="ytick_36">
     <g id="line2d_78">
      <g>
       <use xlink:href="#m5f509a4089" x="404.828125" y="148.569354" style="stroke: #000000; stroke-width: 0.6"/>
      </g>
     </g>
    </g>
    <g id="ytick_37">
     <g id="line2d_79">
      <g>
       <use xlink:href="#m5f509a4089" x="404.828125" y="145.785987" style="stroke: #000000; stroke-width: 0.6"/>
      </g>
     </g>
    </g>
    <g id="ytick_38">
     <g id="line2d_80">
      <g>
       <use xlink:href="#m5f509a4089" x="404.828125" y="143.511811" style="stroke: #000000; stroke-width: 0.6"/>
      </g>
     </g>
    </g>
    <g id="ytick_39">
     <g id="line2d_81">
      <g>
       <use xlink:href="#m5f509a4089" x="404.828125" y="141.589022" style="stroke: #000000; stroke-width: 0.6"/>
      </g>
     </g>
    </g>
    <g id="ytick_40">
     <g id="line2d_82">
      <g>
       <use xlink:href="#m5f509a4089" x="404.828125" y="139.923427" style="stroke: #000000; stroke-width: 0.6"/>
      </g>
     </g>
    </g>
    <g id="ytick_41">
     <g id="line2d_83">
      <g>
       <use xlink:href="#m5f509a4089" x="404.828125" y="138.454268" style="stroke: #000000; stroke-width: 0.6"/>
      </g>
     </g>
    </g>
    <g id="ytick_42">
     <g id="line2d_84">
      <g>
       <use xlink:href="#m5f509a4089" x="404.828125" y="128.494133" style="stroke: #000000; stroke-width: 0.6"/>
      </g>
     </g>
    </g>
    <g id="ytick_43">
     <g id="line2d_85">
      <g>
       <use xlink:href="#m5f509a4089" x="404.828125" y="123.43659" style="stroke: #000000; stroke-width: 0.6"/>
      </g>
     </g>
    </g>
    <g id="ytick_44">
     <g id="line2d_86">
      <g>
       <use xlink:href="#m5f509a4089" x="404.828125" y="119.848206" style="stroke: #000000; stroke-width: 0.6"/>
      </g>
     </g>
    </g>
    <g id="ytick_45">
     <g id="line2d_87">
      <g>
       <use xlink:href="#m5f509a4089" x="404.828125" y="117.064839" style="stroke: #000000; stroke-width: 0.6"/>
      </g>
     </g>
    </g>
    <g id="ytick_46">
     <g id="line2d_88">
      <g>
       <use xlink:href="#m5f509a4089" x="404.828125" y="114.790662" style="stroke: #000000; stroke-width: 0.6"/>
      </g>
     </g>
    </g>
    <g id="ytick_47">
     <g id="line2d_89">
      <g>
       <use xlink:href="#m5f509a4089" x="404.828125" y="112.867874" style="stroke: #000000; stroke-width: 0.6"/>
      </g>
     </g>
    </g>
    <g id="ytick_48">
     <g id="line2d_90">
      <g>
       <use xlink:href="#m5f509a4089" x="404.828125" y="111.202278" style="stroke: #000000; stroke-width: 0.6"/>
      </g>
     </g>
    </g>
    <g id="ytick_49">
     <g id="line2d_91">
      <g>
       <use xlink:href="#m5f509a4089" x="404.828125" y="109.733119" style="stroke: #000000; stroke-width: 0.6"/>
      </g>
     </g>
    </g>
    <g id="ytick_50">
     <g id="line2d_92">
      <g>
       <use xlink:href="#m5f509a4089" x="404.828125" y="99.772984" style="stroke: #000000; stroke-width: 0.6"/>
      </g>
     </g>
    </g>
    <g id="ytick_51">
     <g id="line2d_93">
      <g>
       <use xlink:href="#m5f509a4089" x="404.828125" y="94.715441" style="stroke: #000000; stroke-width: 0.6"/>
      </g>
     </g>
    </g>
    <g id="ytick_52">
     <g id="line2d_94">
      <g>
       <use xlink:href="#m5f509a4089" x="404.828125" y="91.127057" style="stroke: #000000; stroke-width: 0.6"/>
      </g>
     </g>
    </g>
    <g id="ytick_53">
     <g id="line2d_95">
      <g>
       <use xlink:href="#m5f509a4089" x="404.828125" y="88.34369" style="stroke: #000000; stroke-width: 0.6"/>
      </g>
     </g>
    </g>
    <g id="ytick_54">
     <g id="line2d_96">
      <g>
       <use xlink:href="#m5f509a4089" x="404.828125" y="86.069514" style="stroke: #000000; stroke-width: 0.6"/>
      </g>
     </g>
    </g>
    <g id="ytick_55">
     <g id="line2d_97">
      <g>
       <use xlink:href="#m5f509a4089" x="404.828125" y="84.146725" style="stroke: #000000; stroke-width: 0.6"/>
      </g>
     </g>
    </g>
    <g id="ytick_56">
     <g id="line2d_98">
      <g>
       <use xlink:href="#m5f509a4089" x="404.828125" y="82.48113" style="stroke: #000000; stroke-width: 0.6"/>
      </g>
     </g>
    </g>
    <g id="ytick_57">
     <g id="line2d_99">
      <g>
       <use xlink:href="#m5f509a4089" x="404.828125" y="81.011971" style="stroke: #000000; stroke-width: 0.6"/>
      </g>
     </g>
    </g>
    <g id="ytick_58">
     <g id="line2d_100">
      <g>
       <use xlink:href="#m5f509a4089" x="404.828125" y="71.051836" style="stroke: #000000; stroke-width: 0.6"/>
      </g>
     </g>
    </g>
    <g id="ytick_59">
     <g id="line2d_101">
      <g>
       <use xlink:href="#m5f509a4089" x="404.828125" y="65.994292" style="stroke: #000000; stroke-width: 0.6"/>
      </g>
     </g>
    </g>
    <g id="ytick_60">
     <g id="line2d_102">
      <g>
       <use xlink:href="#m5f509a4089" x="404.828125" y="62.405908" style="stroke: #000000; stroke-width: 0.6"/>
      </g>
     </g>
    </g>
    <g id="ytick_61">
     <g id="line2d_103">
      <g>
       <use xlink:href="#m5f509a4089" x="404.828125" y="59.622542" style="stroke: #000000; stroke-width: 0.6"/>
      </g>
     </g>
    </g>
    <g id="ytick_62">
     <g id="line2d_104">
      <g>
       <use xlink:href="#m5f509a4089" x="404.828125" y="57.348365" style="stroke: #000000; stroke-width: 0.6"/>
      </g>
     </g>
    </g>
    <g id="ytick_63">
     <g id="line2d_105">
      <g>
       <use xlink:href="#m5f509a4089" x="404.828125" y="55.425577" style="stroke: #000000; stroke-width: 0.6"/>
      </g>
     </g>
    </g>
    <g id="ytick_64">
     <g id="line2d_106">
      <g>
       <use xlink:href="#m5f509a4089" x="404.828125" y="53.759981" style="stroke: #000000; stroke-width: 0.6"/>
      </g>
     </g>
    </g>
    <g id="ytick_65">
     <g id="line2d_107">
      <g>
       <use xlink:href="#m5f509a4089" x="404.828125" y="52.290822" style="stroke: #000000; stroke-width: 0.6"/>
      </g>
     </g>
    </g>
    <g id="ytick_66">
     <g id="line2d_108">
      <g>
       <use xlink:href="#m5f509a4089" x="404.828125" y="42.330687" style="stroke: #000000; stroke-width: 0.6"/>
      </g>
     </g>
    </g>
    <g id="ytick_67">
     <g id="line2d_109">
      <g>
       <use xlink:href="#m5f509a4089" x="404.828125" y="37.273144" style="stroke: #000000; stroke-width: 0.6"/>
      </g>
     </g>
    </g>
    <g id="text_30">
     <!-- Mean target-token CE (including EOS) -->
     <g transform="translate(368.248437 225.015709) rotate(-90) scale(0.1 -0.1)">
      <use xlink:href="#DejaVuSans-4d"/>
      <use xlink:href="#DejaVuSans-65" transform="translate(86.279297 0)"/>
      <use xlink:href="#DejaVuSans-61" transform="translate(147.802734 0)"/>
      <use xlink:href="#DejaVuSans-6e" transform="translate(209.082031 0)"/>
      <use xlink:href="#DejaVuSans-20" transform="translate(272.460938 0)"/>
      <use xlink:href="#DejaVuSans-74" transform="translate(304.248047 0)"/>
      <use xlink:href="#DejaVuSans-61" transform="translate(343.457031 0)"/>
      <use xlink:href="#DejaVuSans-72" transform="translate(404.736328 0)"/>
      <use xlink:href="#DejaVuSans-67" transform="translate(444.099609 0)"/>
      <use xlink:href="#DejaVuSans-65" transform="translate(507.576172 0)"/>
      <use xlink:href="#DejaVuSans-74" transform="translate(569.099609 0)"/>
      <use xlink:href="#DejaVuSans-2d" transform="translate(608.308594 0)"/>
      <use xlink:href="#DejaVuSans-74" transform="translate(644.392578 0)"/>
      <use xlink:href="#DejaVuSans-6f" transform="translate(683.601562 0)"/>
      <use xlink:href="#DejaVuSans-6b" transform="translate(744.783203 0)"/>
      <use xlink:href="#DejaVuSans-65" transform="translate(799.068359 0)"/>
      <use xlink:href="#DejaVuSans-6e" transform="translate(860.591797 0)"/>
      <use xlink:href="#DejaVuSans-20" transform="translate(923.970703 0)"/>
      <use xlink:href="#DejaVuSans-43" transform="translate(955.757812 0)"/>
      <use xlink:href="#DejaVuSans-45" transform="translate(1025.582031 0)"/>
      <use xlink:href="#DejaVuSans-20" transform="translate(1088.765625 0)"/>
      <use xlink:href="#DejaVuSans-28" transform="translate(1120.552734 0)"/>
      <use xlink:href="#DejaVuSans-69" transform="translate(1159.566406 0)"/>
      <use xlink:href="#DejaVuSans-6e" transform="translate(1187.349609 0)"/>
      <use xlink:href="#DejaVuSans-63" transform="translate(1250.728516 0)"/>
      <use xlink:href="#DejaVuSans-6c" transform="translate(1305.708984 0)"/>
      <use xlink:href="#DejaVuSans-75" transform="translate(1333.492188 0)"/>
      <use xlink:href="#DejaVuSans-64" transform="translate(1396.871094 0)"/>
      <use xlink:href="#DejaVuSans-69" transform="translate(1460.347656 0)"/>
      <use xlink:href="#DejaVuSans-6e" transform="translate(1488.130859 0)"/>
      <use xlink:href="#DejaVuSans-67" transform="translate(1551.509766 0)"/>
      <use xlink:href="#DejaVuSans-20" transform="translate(1614.986328 0)"/>
      <use xlink:href="#DejaVuSans-45" transform="translate(1646.773438 0)"/>
      <use xlink:href="#DejaVuSans-4f" transform="translate(1709.957031 0)"/>
      <use xlink:href="#DejaVuSans-53" transform="translate(1788.667969 0)"/>
      <use xlink:href="#DejaVuSans-29" transform="translate(1852.144531 0)"/>
     </g>
    </g>
   </g>
   <g id="line2d_110">
    <path d="M 418.6871 45.988731 
L 421.584446 46.819853 
L 424.481793 46.191239 
L 427.379139 45.82894 
L 430.276486 49.282063 
L 433.173833 156.52127 
L 436.071179 106.303267 
L 438.968526 112.593248 
L 441.865873 165.759715 
L 444.763219 182.331117 
L 447.660566 217.17202 
L 450.557912 148.809619 
L 453.455259 141.449059 
L 456.352606 190.235831 
L 459.249952 210.800269 
L 462.147299 156.880008 
L 465.044645 178.806536 
L 467.941992 191.234238 
L 470.839339 213.583636 
L 473.736685 162.98984 
L 476.634032 194.822622 
L 479.531379 187.262026 
L 482.428725 217.17202 
L 485.326072 178.24373 
L 488.223418 200.965496 
L 491.120765 197.096798 
L 494.018112 210.800269 
L 496.915458 175.757363 
L 499.812805 187.262026 
L 502.710152 192.899833 
L 505.607498 213.583636 
L 508.504845 156.52127 
L 511.402191 203.468549 
L 514.299538 197.957377 
L 517.196885 213.583636 
L 520.094231 196.291781 
L 522.991578 204.937709 
L 525.888924 203.468549 
L 528.786271 210.800269 
L 531.683618 192.319569 
L 534.580964 200.965496 
L 537.478311 204.937709 
L 540.375658 217.17202 
L 543.273004 197.957377 
L 546.170351 202.154342 
L 549.067697 202.154342 
L 551.965044 210.800269 
L 554.862391 206.603305 
L 557.759737 202.154342 
L 560.657084 204.937709 
L 563.55443 210.800269 
L 566.451777 197.957377 
L 569.349124 206.603305 
L 572.24647 203.468549 
L 575.143817 210.800269 
L 578.041164 197.096798 
L 580.93851 203.468549 
L 583.835857 206.603305 
L 586.733203 210.800269 
L 589.63055 167.262632 
L 592.527897 206.603305 
L 595.425243 206.603305 
L 598.32259 210.800269 
L 601.219936 171.055502 
L 604.117283 208.526092 
L 607.01463 203.468549 
L 609.911976 217.17202 
L 612.809323 197.957377 
L 615.70667 206.603305 
L 618.604016 203.468549 
L 621.501363 213.583636 
L 624.398709 178.428524 
L 627.296056 202.154342 
L 630.193403 204.937709 
L 633.090749 210.800269 
L 635.988096 181.119152 
L 638.885442 206.603305 
L 641.782789 204.937709 
L 644.680136 210.800269 
L 647.577482 200.965496 
L 650.474829 206.603305 
L 653.372176 208.526092 
L 656.269522 213.583636 
L 659.166869 210.800269 
L 662.064215 203.468549 
L 664.961562 206.603305 
L 667.858909 213.583636 
L 670.756255 208.526092 
L 673.653602 206.603305 
L 676.550948 200.965496 
L 679.448295 210.800269 
L 682.345642 181.119152 
L 685.242988 206.603305 
L 688.140335 202.154342 
L 691.037682 213.583636 
L 693.935028 203.468549 
" clip-path="url(#p4c83e9cc50)" style="fill: none; stroke: #1f77b4; stroke-opacity: 0.85; stroke-width: 1.1; stroke-linecap: square"/>
   </g>
   <g id="line2d_111">
    <path d="M 419.652882 44.758131 
L 422.550228 50.39135 
L 425.447575 55.573151 
L 428.344922 51.988818 
L 431.242268 50.517238 
L 434.139615 171.055502 
L 437.036962 206.603305 
L 439.934308 196.291781 
L 442.831655 190.235831 
L 445.729001 194.822622 
L 448.626348 210.800269 
L 451.523695 183.393328 
L 454.421041 176.693309 
L 457.318388 203.468549 
L 460.215734 210.800269 
L 463.113081 172.019596 
L 466.010428 164.479264 
L 468.907774 202.154342 
L 471.805121 210.800269 
L 474.702468 144.067876 
L 477.599814 191.765103 
L 480.497161 202.154342 
L 483.394507 210.800269 
L 486.291854 198.881758 
L 489.189201 204.937709 
L 492.086547 204.937709 
L 494.983894 210.800269 
L 497.88124 202.154342 
L 500.778587 208.526092 
L 503.675934 208.526092 
L 506.57328 213.583636 
L 509.470627 179.804944 
L 512.367974 210.800269 
L 515.26532 208.526092 
L 518.162667 210.800269 
L 521.060013 200.965496 
L 523.95736 210.800269 
L 526.854707 206.603305 
L 529.752053 210.800269 
L 532.6494 206.603305 
L 535.546746 203.468549 
L 538.444093 210.800269 
L 541.34144 210.800269 
L 544.238786 203.468549 
L 547.136133 203.468549 
L 550.03348 206.603305 
L 552.930826 213.583636 
L 555.828173 190.235831 
L 558.725519 210.800269 
L 561.622866 210.800269 
L 564.520213 210.800269 
L 567.417559 210.800269 
L 570.314906 208.526092 
L 573.212252 208.526092 
L 576.109599 210.800269 
L 579.006946 190.725048 
L 581.904292 210.800269 
L 584.801639 206.603305 
L 587.698986 213.583636 
L 590.596332 204.937709 
L 593.493679 210.800269 
L 596.391025 210.800269 
L 599.288372 210.800269 
L 602.185719 210.800269 
L 605.083065 210.800269 
L 607.980412 210.800269 
L 610.877758 210.800269 
L 613.775105 208.526092 
L 616.672452 210.800269 
L 619.569798 208.526092 
L 622.467145 210.800269 
L 625.364492 203.468549 
L 628.261838 213.583636 
L 631.159185 210.800269 
L 634.056531 210.800269 
L 636.953878 202.154342 
L 639.851225 210.800269 
L 642.748571 208.526092 
L 645.645918 213.583636 
L 648.543264 204.937709 
L 651.440611 210.800269 
L 654.337958 210.800269 
L 657.235304 213.583636 
L 660.132651 210.800269 
L 663.029998 210.800269 
L 665.927344 213.583636 
L 668.824691 213.583636 
L 671.722037 202.154342 
L 674.619384 210.800269 
L 677.516731 210.800269 
L 680.414077 210.800269 
L 683.311424 206.603305 
L 686.20877 213.583636 
L 689.106117 208.526092 
L 692.003464 210.800269 
L 694.90081 213.583636 
" clip-path="url(#p4c83e9cc50)" style="fill: none; stroke: #ff7f0e; stroke-opacity: 0.85; stroke-width: 1.1; stroke-linecap: square"/>
   </g>
   <g id="line2d_112">
    <path d="M 420.618664 43.74221 
L 423.516011 53.780955 
L 426.413357 59.243565 
L 429.310704 47.754073 
L 432.208051 54.665616 
L 435.105397 153.407966 
L 438.002744 213.583636 
L 440.90009 210.800269 
L 443.797437 187.262026 
L 446.694784 200.965496 
L 449.59213 210.800269 
L 452.489477 202.154342 
L 455.386823 192.319569 
L 458.28417 206.603305 
L 461.181517 213.583636 
L 464.078863 204.937709 
L 466.97621 197.096798 
L 469.873557 199.880165 
L 472.770903 210.800269 
L 475.66825 206.603305 
L 478.565596 198.881758 
L 481.462943 202.154342 
L 484.36029 210.800269 
L 487.257636 206.603305 
L 490.154983 198.881758 
L 493.052329 203.468549 
L 495.949676 210.800269 
L 498.847023 203.468549 
L 501.744369 202.154342 
L 504.641716 206.603305 
L 507.539063 210.800269 
L 510.436409 183.393328 
L 513.333756 208.526092 
L 516.231102 210.800269 
L 519.128449 210.800269 
L 522.025796 196.291781 
L 524.923142 206.603305 
L 527.820489 208.526092 
L 530.717835 213.583636 
L 533.615182 210.800269 
L 536.512529 206.603305 
L 539.409875 206.603305 
L 542.307222 213.583636 
L 545.204569 217.17202 
L 548.101915 213.583636 
L 550.999262 210.800269 
L 553.896608 217.17202 
L 556.793955 208.526092 
L 559.691302 210.800269 
L 562.588648 208.526092 
L 565.485995 213.583636 
L 568.383341 213.583636 
L 571.280688 210.800269 
L 574.178035 210.800269 
L 577.075381 217.17202 
L 579.972728 213.583636 
L 582.870075 213.583636 
L 585.767421 217.17202 
L 588.664768 213.583636 
L 591.562114 200.965496 
L 594.459461 210.800269 
L 597.356808 210.800269 
L 600.254154 210.800269 
L 603.151501 210.800269 
L 606.048847 210.800269 
L 608.946194 210.800269 
L 611.843541 213.583636 
L 614.740887 190.725048 
L 617.638234 213.583636 
L 620.535581 210.800269 
L 623.432927 210.800269 
L 626.330274 194.148218 
L 629.22762 210.800269 
L 632.124967 213.583636 
L 635.022314 210.800269 
L 637.91966 210.800269 
L 640.817007 210.800269 
L 643.714353 210.800269 
L 646.6117 213.583636 
L 649.509047 217.17202 
L 652.406393 213.583636 
L 655.30374 210.800269 
L 658.201087 213.583636 
L 661.098433 206.603305 
L 663.99578 213.583636 
L 666.893126 208.526092 
L 669.790473 213.583636 
L 672.68782 210.800269 
L 675.585166 208.526092 
L 678.482513 208.526092 
L 681.379859 210.800269 
L 684.277206 213.583636 
L 687.174553 210.800269 
L 690.071899 210.800269 
L 692.969246 213.583636 
L 695.866593 206.603305 
" clip-path="url(#p4c83e9cc50)" style="fill: none; stroke: #2ca02c; stroke-opacity: 0.85; stroke-width: 1.1; stroke-linecap: square"/>
   </g>
   <g id="patch_8">
    <path d="M 404.828125 225.84351 
L 404.828125 35.07072 
" style="fill: none; stroke: #000000; stroke-width: 0.8; stroke-linejoin: miter; stroke-linecap: square"/>
   </g>
   <g id="patch_9">
    <path d="M 709.725567 225.84351 
L 709.725567 35.07072 
" style="fill: none; stroke: #000000; stroke-width: 0.8; stroke-linejoin: miter; stroke-linecap: square"/>
   </g>
   <g id="patch_10">
    <path d="M 404.828125 225.84351 
L 709.725567 225.84351 
" style="fill: none; stroke: #000000; stroke-width: 0.8; stroke-linejoin: miter; stroke-linecap: square"/>
   </g>
   <g id="patch_11">
    <path d="M 404.828125 35.07072 
L 709.725567 35.07072 
" style="fill: none; stroke: #000000; stroke-width: 0.8; stroke-linejoin: miter; stroke-linecap: square"/>
   </g>
   <g id="text_31">
    <!-- B: permuted MCQ CE -->
    <g transform="translate(493.985284 29.07072) scale(0.12 -0.12)">
     <defs>
      <path id="DejaVuSans-42" d="M 1259 2228 
L 1259 519 
L 2272 519 
Q 2781 519 3026 730 
Q 3272 941 3272 1375 
Q 3272 1813 3026 2020 
Q 2781 2228 2272 2228 
L 1259 2228 
z
M 1259 4147 
L 1259 2741 
L 2194 2741 
Q 2656 2741 2882 2914 
Q 3109 3088 3109 3444 
Q 3109 3797 2882 3972 
Q 2656 4147 2194 4147 
L 1259 4147 
z
M 628 4666 
L 2241 4666 
Q 2963 4666 3353 4366 
Q 3744 4066 3744 3513 
Q 3744 3084 3544 2831 
Q 3344 2578 2956 2516 
Q 3422 2416 3680 2098 
Q 3938 1781 3938 1306 
Q 3938 681 3513 340 
Q 3088 0 2303 0 
L 628 0 
L 628 4666 
z
" transform="scale(0.015625)"/>
      <path id="DejaVuSans-51" d="M 2522 4238 
Q 1834 4238 1429 3725 
Q 1025 3213 1025 2328 
Q 1025 1447 1429 934 
Q 1834 422 2522 422 
Q 3209 422 3611 934 
Q 4013 1447 4013 2328 
Q 4013 3213 3611 3725 
Q 3209 4238 2522 4238 
z
M 3406 84 
L 4238 -825 
L 3475 -825 
L 2784 -78 
Q 2681 -84 2626 -87 
Q 2572 -91 2522 -91 
Q 1538 -91 948 567 
Q 359 1225 359 2328 
Q 359 3434 948 4092 
Q 1538 4750 2522 4750 
Q 3503 4750 4090 4092 
Q 4678 3434 4678 2328 
Q 4678 1516 4351 937 
Q 4025 359 3406 84 
z
" transform="scale(0.015625)"/>
     </defs>
     <use xlink:href="#DejaVuSans-42"/>
     <use xlink:href="#DejaVuSans-3a" transform="translate(68.603516 0)"/>
     <use xlink:href="#DejaVuSans-20" transform="translate(102.294922 0)"/>
     <use xlink:href="#DejaVuSans-70" transform="translate(134.082031 0)"/>
     <use xlink:href="#DejaVuSans-65" transform="translate(197.558594 0)"/>
     <use xlink:href="#DejaVuSans-72" transform="translate(259.082031 0)"/>
     <use xlink:href="#DejaVuSans-6d" transform="translate(298.445312 0)"/>
     <use xlink:href="#DejaVuSans-75" transform="translate(395.857422 0)"/>
     <use xlink:href="#DejaVuSans-74" transform="translate(459.236328 0)"/>
     <use xlink:href="#DejaVuSans-65" transform="translate(498.445312 0)"/>
     <use xlink:href="#DejaVuSans-64" transform="translate(559.96875 0)"/>
     <use xlink:href="#DejaVuSans-20" transform="translate(623.445312 0)"/>
     <use xlink:href="#DejaVuSans-4d" transform="translate(655.232422 0)"/>
     <use xlink:href="#DejaVuSans-43" transform="translate(741.511719 0)"/>
     <use xlink:href="#DejaVuSans-51" transform="translate(811.335938 0)"/>
     <use xlink:href="#DejaVuSans-20" transform="translate(890.046875 0)"/>
     <use xlink:href="#DejaVuSans-43" transform="translate(921.833984 0)"/>
     <use xlink:href="#DejaVuSans-45" transform="translate(991.658203 0)"/>
    </g>
   </g>
   <g id="legend_2">
    <g id="line2d_113">
     <path d="M 539.31463 48.169157 
L 549.31463 48.169157 
L 559.31463 48.169157 
" style="fill: none; stroke: #1f77b4; stroke-opacity: 0.85; stroke-width: 1.1; stroke-linecap: square"/>
    </g>
    <g id="text_32">
     <!-- T1 -->
     <g transform="translate(567.31463 51.669157) scale(0.1 -0.1)">
      <use xlink:href="#DejaVuSans-54"/>
      <use xlink:href="#DejaVuSans-31" transform="translate(61.083984 0)"/>
     </g>
    </g>
    <g id="line2d_114">
     <path d="M 599.784942 48.169157 
L 609.784942 48.169157 
L 619.784942 48.169157 
" style="fill: none; stroke: #ff7f0e; stroke-opacity: 0.85; stroke-width: 1.1; stroke-linecap: square"/>
    </g>
    <g id="text_33">
     <!-- T2 -->
     <g transform="translate(627.784942 51.669157) scale(0.1 -0.1)">
      <use xlink:href="#DejaVuSans-54"/>
      <use xlink:href="#DejaVuSans-32" transform="translate(61.083984 0)"/>
     </g>
    </g>
    <g id="line2d_115">
     <path d="M 660.255255 48.169157 
L 670.255255 48.169157 
L 680.255255 48.169157 
" style="fill: none; stroke: #2ca02c; stroke-opacity: 0.85; stroke-width: 1.1; stroke-linecap: square"/>
    </g>
    <g id="text_34">
     <!-- T3 -->
     <g transform="translate(688.255255 51.669157) scale(0.1 -0.1)">
      <use xlink:href="#DejaVuSans-54"/>
      <use xlink:href="#DejaVuSans-33" transform="translate(61.083984 0)"/>
     </g>
    </g>
   </g>
  </g>
  <g id="text_35">
   <!-- entertain_games:0001 — one fixed training example; not readback accuracy -->
   <g transform="translate(148.465703 11.358521) scale(0.11 -0.11)">
    <defs>
     <path id="DejaVuSans-5f" d="M 3263 -1063 
L 3263 -1509 
L -63 -1509 
L -63 -1063 
L 3263 -1063 
z
" transform="scale(0.015625)"/>
     <path id="DejaVuSans-2014" d="M 313 1978 
L 6088 1978 
L 6088 1528 
L 313 1528 
L 313 1978 
z
" transform="scale(0.015625)"/>
     <path id="DejaVuSans-78" d="M 3513 3500 
L 2247 1797 
L 3578 0 
L 2900 0 
L 1881 1375 
L 863 0 
L 184 0 
L 1544 1831 
L 300 3500 
L 978 3500 
L 1906 2253 
L 2834 3500 
L 3513 3500 
z
" transform="scale(0.015625)"/>
     <path id="DejaVuSans-3b" d="M 750 3309 
L 1409 3309 
L 1409 2516 
L 750 2516 
L 750 3309 
z
M 750 794 
L 1409 794 
L 1409 256 
L 897 -744 
L 494 -744 
L 750 256 
L 750 794 
z
" transform="scale(0.015625)"/>
     <path id="DejaVuSans-62" d="M 3116 1747 
Q 3116 2381 2855 2742 
Q 2594 3103 2138 3103 
Q 1681 3103 1420 2742 
Q 1159 2381 1159 1747 
Q 1159 1113 1420 752 
Q 1681 391 2138 391 
Q 2594 391 2855 752 
Q 3116 1113 3116 1747 
z
M 1159 2969 
Q 1341 3281 1617 3432 
Q 1894 3584 2278 3584 
Q 2916 3584 3314 3078 
Q 3713 2572 3713 1747 
Q 3713 922 3314 415 
Q 2916 -91 2278 -91 
Q 1894 -91 1617 61 
Q 1341 213 1159 525 
L 1159 0 
L 581 0 
L 581 4863 
L 1159 4863 
L 1159 2969 
z
" transform="scale(0.015625)"/>
     <path id="DejaVuSans-79" d="M 2059 -325 
Q 1816 -950 1584 -1140 
Q 1353 -1331 966 -1331 
L 506 -1331 
L 506 -850 
L 844 -850 
Q 1081 -850 1212 -737 
Q 1344 -625 1503 -206 
L 1606 56 
L 191 3500 
L 800 3500 
L 1894 763 
L 2988 3500 
L 3597 3500 
L 2059 -325 
z
" transform="scale(0.015625)"/>
    </defs>
    <use xlink:href="#DejaVuSans-65"/>
    <use xlink:href="#DejaVuSans-6e" transform="translate(61.523438 0)"/>
    <use xlink:href="#DejaVuSans-74" transform="translate(124.902344 0)"/>
    <use xlink:href="#DejaVuSans-65" transform="translate(164.111328 0)"/>
    <use xlink:href="#DejaVuSans-72" transform="translate(225.634766 0)"/>
    <use xlink:href="#DejaVuSans-74" transform="translate(266.748047 0)"/>
    <use xlink:href="#DejaVuSans-61" transform="translate(305.957031 0)"/>
    <use xlink:href="#DejaVuSans-69" transform="translate(367.236328 0)"/>
    <use xlink:href="#DejaVuSans-6e" transform="translate(395.019531 0)"/>
    <use xlink:href="#DejaVuSans-5f" transform="translate(458.398438 0)"/>
    <use xlink:href="#DejaVuSans-67" transform="translate(508.398438 0)"/>
    <use xlink:href="#DejaVuSans-61" transform="translate(571.875 0)"/>
    <use xlink:href="#DejaVuSans-6d" transform="translate(633.154297 0)"/>
    <use xlink:href="#DejaVuSans-65" transform="translate(730.566406 0)"/>
    <use xlink:href="#DejaVuSans-73" transform="translate(792.089844 0)"/>
    <use xlink:href="#DejaVuSans-3a" transform="translate(844.189453 0)"/>
    <use xlink:href="#DejaVuSans-30" transform="translate(877.880859 0)"/>
    <use xlink:href="#DejaVuSans-30" transform="translate(941.503906 0)"/>
    <use xlink:href="#DejaVuSans-30" transform="translate(1005.126953 0)"/>
    <use xlink:href="#DejaVuSans-31" transform="translate(1068.75 0)"/>
    <use xlink:href="#DejaVuSans-20" transform="translate(1132.373047 0)"/>
    <use xlink:href="#DejaVuSans-2014" transform="translate(1164.160156 0)"/>
    <use xlink:href="#DejaVuSans-20" transform="translate(1264.160156 0)"/>
    <use xlink:href="#DejaVuSans-6f" transform="translate(1295.947266 0)"/>
    <use xlink:href="#DejaVuSans-6e" transform="translate(1357.128906 0)"/>
    <use xlink:href="#DejaVuSans-65" transform="translate(1420.507812 0)"/>
    <use xlink:href="#DejaVuSans-20" transform="translate(1482.03125 0)"/>
    <use xlink:href="#DejaVuSans-66" transform="translate(1513.818359 0)"/>
    <use xlink:href="#DejaVuSans-69" transform="translate(1549.023438 0)"/>
    <use xlink:href="#DejaVuSans-78" transform="translate(1576.806641 0)"/>
    <use xlink:href="#DejaVuSans-65" transform="translate(1632.861328 0)"/>
    <use xlink:href="#DejaVuSans-64" transform="translate(1694.384766 0)"/>
    <use xlink:href="#DejaVuSans-20" transform="translate(1757.861328 0)"/>
    <use xlink:href="#DejaVuSans-74" transform="translate(1789.648438 0)"/>
    <use xlink:href="#DejaVuSans-72" transform="translate(1828.857422 0)"/>
    <use xlink:href="#DejaVuSans-61" transform="translate(1869.970703 0)"/>
    <use xlink:href="#DejaVuSans-69" transform="translate(1931.25 0)"/>
    <use xlink:href="#DejaVuSans-6e" transform="translate(1959.033203 0)"/>
    <use xlink:href="#DejaVuSans-69" transform="translate(2022.412109 0)"/>
    <use xlink:href="#DejaVuSans-6e" transform="translate(2050.195312 0)"/>
    <use xlink:href="#DejaVuSans-67" transform="translate(2113.574219 0)"/>
    <use xlink:href="#DejaVuSans-20" transform="translate(2177.050781 0)"/>
    <use xlink:href="#DejaVuSans-65" transform="translate(2208.837891 0)"/>
    <use xlink:href="#DejaVuSans-78" transform="translate(2268.611328 0)"/>
    <use xlink:href="#DejaVuSans-61" transform="translate(2327.791016 0)"/>
    <use xlink:href="#DejaVuSans-6d" transform="translate(2389.070312 0)"/>
    <use xlink:href="#DejaVuSans-70" transform="translate(2486.482422 0)"/>
    <use xlink:href="#DejaVuSans-6c" transform="translate(2549.958984 0)"/>
    <use xlink:href="#DejaVuSans-65" transform="translate(2577.742188 0)"/>
    <use xlink:href="#DejaVuSans-3b" transform="translate(2639.265625 0)"/>
    <use xlink:href="#DejaVuSans-20" transform="translate(2672.957031 0)"/>
    <use xlink:href="#DejaVuSans-6e" transform="translate(2704.744141 0)"/>
    <use xlink:href="#DejaVuSans-6f" transform="translate(2768.123047 0)"/>
    <use xlink:href="#DejaVuSans-74" transform="translate(2829.304688 0)"/>
    <use xlink:href="#DejaVuSans-20" transform="translate(2868.513672 0)"/>
    <use xlink:href="#DejaVuSans-72" transform="translate(2900.300781 0)"/>
    <use xlink:href="#DejaVuSans-65" transform="translate(2939.164062 0)"/>
    <use xlink:href="#DejaVuSans-61" transform="translate(3000.6875 0)"/>
    <use xlink:href="#DejaVuSans-64" transform="translate(3061.966797 0)"/>
    <use xlink:href="#DejaVuSans-62" transform="translate(3125.443359 0)"/>
    <use xlink:href="#DejaVuSans-61" transform="translate(3188.919922 0)"/>
    <use xlink:href="#DejaVuSans-63" transform="translate(3250.199219 0)"/>
    <use xlink:href="#DejaVuSans-6b" transform="translate(3305.179688 0)"/>
    <use xlink:href="#DejaVuSans-20" transform="translate(3363.089844 0)"/>
    <use xlink:href="#DejaVuSans-61" transform="translate(3394.876953 0)"/>
    <use xlink:href="#DejaVuSans-63" transform="translate(3456.15625 0)"/>
    <use xlink:href="#DejaVuSans-63" transform="translate(3511.136719 0)"/>
    <use xlink:href="#DejaVuSans-75" transform="translate(3566.117188 0)"/>
    <use xlink:href="#DejaVuSans-72" transform="translate(3629.496094 0)"/>
    <use xlink:href="#DejaVuSans-61" transform="translate(3670.609375 0)"/>
    <use xlink:href="#DejaVuSans-63" transform="translate(3731.888672 0)"/>
    <use xlink:href="#DejaVuSans-79" transform="translate(3786.869141 0)"/>
   </g>
  </g>
 </g>
 <defs>
  <clipPath id="p7b9d947126">
   <rect x="41.278365" y="35.07072" width="304.897442" height="190.77279"/>
  </clipPath>
  <clipPath id="p4c83e9cc50">
   <rect x="404.828125" y="35.07072" width="304.897442" height="190.77279"/>
  </clipPath>
 </defs>
</svg>
